<?xml version="1.0" encoding="UTF-8"?>
<svg id="Layer_2" data-name="Layer 2" xmlns="http://www.w3.org/2000/svg" viewBox="0 0 580.81 589.69">
  <defs>
    <style>
      .cls-1 {
        fill: none;
        fill-rule: evenodd;
        stroke: #fd96ad;
        stroke-miterlimit: 10;
        stroke-width: 3px;
      }
    </style>
  </defs>
  <g id="Layer_1-2" data-name="Layer 1">
    <g>
      <path class="cls-1" d="M251.07,1.59c-.14.14-.05.8.28,1.45.94,2.06-.33,10.41-2.63,17.3-2.86,8.44-4.22,10.87-10.55,18.8-3,3.8-6.66,8.53-8.06,10.45-1.41,1.92-4.22,5.25-6.19,7.41-2.02,2.11-4.5,4.97-5.58,6.28-1.03,1.31-3.47,4.22-5.34,6.42-7.92,9.23-15.56,21-20.02,30.75-3.33,7.27-7.12,19.55-9,29.2-.66,3.28-1.64,8.02-2.16,10.5-.98,4.83-1.88,17.86-1.88,28.5,0,5.62,1.64,19.45,2.81,23.44.23.89.47,2.3.47,3.09,0,2.34,2.63,15.14,5.02,24.56.61,2.3.8,5.16.8,11.72,0,10.12-.84,15.47-3.09,20.11-1.36,2.81-1.59,3.05-4.78,4.55-2.91,1.36-3.94,1.64-7.12,1.69-3.28.09-4.41-.14-10.12-2.11-3.56-1.22-8.53-3.19-11.02-4.36-4.31-2.02-4.97-2.53-11.25-8.77-11.95-11.95-14.86-14.62-19.83-18.37-2.72-2.06-8.81-6.7-13.59-10.36-13.27-10.08-25.03-17.44-30.94-19.36-3.89-1.22-11.02-2.67-15.28-3.09-3.8-.38-9.98.33-15.19,1.69-3.89,1.08-12.66,4.64-12.66,5.16,0,1.08,2.34.8,7.12-.89,10.78-3.8,19.36-4.55,28.5-2.48,6.89,1.55,9.28,2.48,13.97,5.3,6.37,3.8,15.05,9.61,18.37,12.33,2.72,2.16,9.42,7.27,19.22,14.53,1.73,1.27,4.73,3.94,6.66,5.86,1.92,1.92,6.75,6.7,10.73,10.59,6.66,6.52,7.59,7.22,11.67,9.23,5.11,2.48,17.3,6.7,20.53,7.17,3.47.42,9.33-.56,12.61-2.16,2.2-1.08,3.19-1.92,4.31-3.66,3.09-4.87,4.45-11.91,4.36-23.06,0-6.84-.19-8.48-1.5-14.3-2.77-12.33-4.22-19.69-4.22-21.56,0-1.03-.23-2.72-.47-3.75-.7-3-2.34-14.06-2.62-18.23-.19-2.06-.05-9.09.23-15.51.47-9.47.84-13.08,1.97-18.75,2.53-13.03,3.33-16.36,5.91-24.8,4.13-13.41,8.53-21.8,18.09-34.5,5.44-7.27,14.3-17.81,18.56-22.27,1.27-1.31,3.84-4.45,5.77-7.03,1.88-2.58,5.39-7.08,7.73-9.98,5.02-6.23,7.31-10.36,10.03-18.37,1.73-5.06,2.02-6.51,2.2-10.83.14-3.09,0-5.63-.33-6.61-.56-1.73-2.02-3.42-2.53-2.91h0Z"/>
      <path class="cls-1" d="M262.93,6.56c0,.84-.33,3.42-.75,5.77-2.16,12.47-8.44,22.73-28.41,46.31-5.3,6.28-10.12,13.5-14.86,22.22-1.83,3.42-3.94,7.27-4.73,8.48-2.3,3.75-5.44,10.83-6.98,15.56-2.48,7.88-5.72,19.31-6.66,23.44-3,13.45-5.11,48.37-3.33,55.55.28,1.27.75,5.06,1.03,8.44.66,7.59,4.03,23.91,6.66,31.73,1.83,5.53,1.92,6.09,2.11,12.84.19,6.47.09,7.55-.98,11.81-1.27,5.16-3.23,9.42-5.86,12.89-1.55,2.06-6.94,6.09-10.59,7.92-1.83.94-13.31,3.19-16.17,3.19-3.89,0-9.19-2.3-15.7-6.8-1.55-1.08-3.75-2.34-4.92-2.81-3.56-1.5-5.06-2.72-18.09-14.34-1.64-1.45-4.12-3.42-5.58-4.36-1.41-.98-3.52-2.53-4.69-3.56-3.33-2.86-12.8-9.52-16.87-11.86-2.06-1.17-5.2-3.05-6.94-4.22-1.78-1.17-4.73-2.86-6.56-3.75-11.3-5.48-13.69-6.47-18.28-7.78-7.22-2.06-20.86-3.28-26.34-2.39-3.42.56-7.36,2.11-9.52,3.75-2.39,1.83-6.14,5.72-6.47,6.66-.56,1.78.38,1.5,2.3-.61,6.47-7.08,11.11-8.77,22.78-8.2,8.77.38,12.09.89,17.58,2.63,5.25,1.69,17.16,7.5,23.01,11.2,2.34,1.5,5.91,3.7,8.02,4.92,2.06,1.22,6.47,4.31,9.84,6.84,3.33,2.58,7.64,5.81,9.56,7.22,1.92,1.41,4.03,3.05,4.69,3.66.66.61,2.77,2.44,4.69,4.13,1.92,1.69,5.06,4.45,6.98,6.23,2.34,2.16,4.64,3.7,7.31,5.02,2.16.98,4.83,2.53,5.95,3.37,2.72,2.11,8.91,5.25,12.05,6.19,3.75,1.12,8.44.94,15.8-.61,6.89-1.41,8.58-2.16,14.53-6.42,4.92-3.47,8.62-9.75,10.55-17.86.84-3.52.94-5.2.75-11.62-.19-7.36-.23-7.59-2.16-13.12-2.39-6.84-5.91-24.19-6.37-31.17-.14-2.72-.61-6.98-.98-9.56-1.27-8.11-.98-20.2,1.03-39.89.94-9.19,2.11-15,5.16-25.55,4.31-14.95,6.28-20.06,10.45-26.91.98-1.59,3.23-5.53,4.97-8.77,4.41-8.02,10.17-16.69,14.72-21.98,14.3-16.64,22.41-28.26,25.64-36.8,2.16-5.72,3.19-14.34,2.06-17.3-.61-1.69-1.41-1.5-1.41.28Z"/>
      <path class="cls-1" d="M325.37,13.59c-14.3,13.64-25.5,25.78-33.7,36.51-9.37,12.37-26.86,36.66-32.01,44.58-5.34,8.11-10.73,19.26-13.59,27.98-4.78,14.67-6.47,24.28-5.95,34.26.38,6.8,1.27,11.39,3.61,18.47,4.13,12.23,8.25,17.91,15.7,21.56,5.77,2.81,9.7,3.75,15.23,3.75s10.59-.89,27.19-4.87c13.59-3.33,19.97-4.03,28.03-3.28,9.05.84,13.27,2.77,19.08,8.72,6.37,6.52,8.44,13.27,12.37,40.26,1.59,10.83,5.53,31.12,7.55,38.81,1.64,6.37,4.83,14.39,8.02,20.44,7.31,13.69,13.36,19.03,26.62,23.53l5.91,2.02h7.03c7.73-.05,11.25-.75,17.48-3.37,7.88-3.38,16.59-11.06,24.47-21.66,8.86-11.95,12.37-15.42,18.52-18.33,2.2-1.08,3.47-1.36,5.95-1.36,3.56,0,13.08-1.55,16.55-2.67,8.2-2.63,14.58-7.73,24.98-19.83,12.19-14.2,17.53-22.55,19.08-29.81.47-2.25.7-6.33.7-13.59,0-15.09.98-23.01,4.27-34.78,1.41-5.02,11.02-31.12,15.94-43.26,1.5-3.8,2.77-6.98,2.77-7.17,0-.14-.33-.28-.75-.28-1.17,0-6.56,11.72-14.25,30.94-5.02,12.47-7.12,18.84-8.81,26.25-2.16,9.42-2.53,13.03-2.72,27.56-.19,12.75-.23,13.41-1.41,16.87-2.11,6.37-5.39,11.3-16.22,24.23-9.42,11.3-17.11,17.91-23.67,20.39-3.98,1.5-11.48,2.86-16.55,2.95-4.03.09-4.83.28-7.97,1.78-6.89,3.33-10.27,6.56-19.31,18.61-12.42,16.45-23.2,23.53-37.22,24.33-5.77.33-9.75-.33-15.42-2.48-11.06-4.27-16.92-10.22-23.86-24.14-3.47-6.98-6.28-15.09-8.2-23.86-2.3-10.41-5.06-25.08-6.14-32.58-2.44-17.11-5.06-28.36-7.83-33.66-2.16-4.17-8.39-10.55-12.75-13.08-5.11-2.95-9.94-3.84-20.67-3.84-9.8-.05-9.33-.09-23.3,3.28-13.97,3.37-22.03,4.87-26.25,4.87-6.98,0-14.86-3.37-19.36-8.3-4.03-4.41-8.34-14.62-10.27-24.42-2.34-11.81-1.45-22.03,3.28-37.55,4.83-15.75,9.23-24.56,20.25-40.36,7.41-10.59,25.31-35.2,29.53-40.45,5.91-7.5,17.25-19.92,27-29.62,4.92-4.87,8.95-9.05,8.95-9.23,0-.23-.52-.37-1.17-.37-.89,0-2.67,1.41-6.7,5.25h0Z"/>
      <path class="cls-1" d="M212.49,11.58c.19.28,1.22.98,2.25,1.5,2.67,1.36,6.61,5.39,8.16,8.44,1.17,2.2,1.31,3.05,1.31,6.52-.05,2.3-.37,5.06-.8,6.47-2.67,8.67-14.91,27.94-24.98,39.23-5.3,5.95-12.37,15.61-15.51,21.09-8.11,14.25-8.53,15.05-11.81,23.81-8.91,23.62-10.41,51.14-3.98,71.72.66,2.11,2.58,7.59,4.22,12.14,3.23,9,3.94,12.19,3.94,18.05,0,4.5-1.17,13.92-2.25,18.33-.61,2.44-1.03,3.23-1.97,3.7-1.78.89-7.41.75-9.61-.28-3.7-1.69-14.81-11.62-18.66-16.69-3.28-4.31-32.11-33.14-37.45-37.45-3.8-3.05-8.62-5.67-13.27-7.22-3.52-1.17-15.09-3.66-20.39-4.36-4.27-.56-12.14-.33-14.06.42-1.83.75-.52.94,6.8,1.17,5.16.14,7.92.52,12.89,1.64,13.17,3.05,18.84,5.25,24.61,9.61,3.94,3,35.25,34.17,37.73,37.59,2.58,3.56,5.39,6.33,12.19,12.14,6.19,5.34,9.09,6.89,13.03,6.98,8.95.23,10.97-3.05,12.8-21.05.89-8.95.28-12.94-3.98-24.98-5.39-15.23-6.42-19.5-7.31-31.08-.42-5.63-.42-8.44.19-15.98,1.12-13.59,3.05-22.69,7.17-33.84,5.77-15.42,16.36-32.48,28.22-45.47,4.5-4.92,11.67-14.67,15.89-21.66,3.7-6.09,8.39-15.94,8.95-18.8.89-4.31.66-8.95-.61-11.58-2.2-4.69-7.92-9.56-12.19-10.36-1.31-.23-1.73-.19-1.5.23h0Z"/>
      <path class="cls-1" d="M337.41,20.91c-5.72,5.86-10.12,10.92-14.72,16.97-3.61,4.73-8.86,11.39-11.72,14.77-18.61,22.08-24.66,30.28-33.05,45-10.41,18.19-14.53,27.33-18.56,41.06-2.16,7.5-2.3,12.47-.42,17.81,2.48,7.17,4.83,9.37,12.8,11.95,3.7,1.22,4.69,1.36,10.41,1.36,6.42-.05,6.33-.05,33.75-4.73,5.06-.84,8.67-.84,13.73.05,4.59.8,12,3.33,15.09,5.11,2.63,1.55,14.3,13.41,16.97,17.25,1.12,1.59,3.09,5.02,4.45,7.59,1.31,2.63,3.61,6.75,5.06,9.19,3.75,6.23,5.3,9.42,6.94,14.3,2.11,6.33,3.28,10.78,4.27,16.22,2.3,12.28,5.77,24.28,10.83,37.69,1.45,3.84,3.14,8.48,3.7,10.31.61,1.78,1.73,4.55,2.53,6.09,1.69,3.19,7.45,9.28,10.64,11.25,1.17.7,2.58,1.83,3.09,2.53.98,1.17,1.12,1.22,6.8,1.22s5.91-.05,9.09-1.59c4.59-2.25,11.95-9.66,16.5-16.69,4.31-6.66,6.05-8.62,10.78-12,5.53-4.03,6.94-4.5,12.37-4.41,2.48.09,5.2.38,6.09.66.89.28,3.8.56,6.52.61,4.64.09,5.16,0,8.67-1.45,7.97-3.28,13.92-9.14,21.33-20.86,5.3-8.39,8.11-15,11.02-25.83.7-2.58,1.69-5.77,2.16-7.08,1.27-3.33,2.25-8.25,1.97-9.7-.28-1.36,1.87-10.27,4.27-17.95,1.22-3.84,1.69-6.28,1.87-9.8.23-4.59,2.02-19.36,3.33-27.66.38-2.34,1.41-6.75,2.34-9.84,2.86-9.56,5.81-21.51,6.14-24.75.28-2.72.23-3.14-.42-3.14-.47,0-.94.66-1.22,1.73-.23.98-.8,3.14-1.22,4.83-.42,1.64-2.16,7.36-3.8,12.66-3.7,11.62-4.64,15.61-5.34,22.03-.28,2.72-1.03,8.44-1.64,12.75-.66,4.31-1.17,9.33-1.17,11.16,0,2.3-.37,4.55-1.36,7.59-1.36,4.27-3.28,11.25-7.78,28.03-2.86,10.55-2.77,10.26-2.16,9.37,1.03-1.45.52.94-1.59,7.36-4.5,13.69-15.94,30.14-24.42,35.11-1.08.61-3.47,1.69-5.39,2.34-3.09,1.08-3.89,1.17-7.45.89-2.2-.19-5.16-.66-6.56-1.03-1.5-.47-4.5-.8-7.27-.8-5.2-.05-5.62.09-11.11,4.27-4.13,3.14-7.12,6.52-10.27,11.62-5.39,8.67-11.72,15.42-16.78,17.91-2.06,1.03-3.47,1.36-6.47,1.45-3.38.19-4.08.05-6.28-1.08-7.73-3.84-12.28-9.56-15.56-19.45-.66-1.92-2.44-6.98-4.03-11.2-3.7-9.84-7.69-23.62-9.52-32.86-1.5-7.69-4.31-17.72-6.42-22.92-.7-1.73-2.77-5.67-4.55-8.72-1.83-3.09-4.55-7.92-6-10.78-1.5-2.81-3.56-6.37-4.64-7.92-2.48-3.7-13.87-15.14-17.2-17.3-5.16-3.38-15.23-6.56-22.73-7.13-3.14-.28-5.77,0-15.7,1.64-6.56,1.03-14.06,2.3-16.64,2.81-7.22,1.36-13.5,1.69-16.87.8-4.64-1.17-8.2-2.67-9.84-4.17-2.39-2.06-4.55-7.92-4.83-13.03-.23-4.5.19-6.37,3.47-16.5,3.47-10.64,7.17-18.33,17.76-36.94,6.98-12.28,14.34-22.27,31.17-42.42,3-3.61,8.58-10.69,12.42-15.7,7.31-9.66,9-11.72,16.59-19.87,4.31-4.69,5.44-6.37,4.31-6.37-.19,0-4.08,3.75-8.53,8.34Z"/>
      <path class="cls-1" d="M290.77,18.28c-.42.84-1.59,2.58-2.58,3.89-.94,1.27-3.37,5.58-5.34,9.52-4.45,8.95-8.86,15.52-14.95,22.36-5.2,5.81-26.58,36.05-29.34,41.48-1.31,2.53-5.53,13.92-7.92,21.19-4.08,12.61-7.92,30.23-8.44,38.76-.66,11.3-.05,15.7,3.42,23.34,1.12,2.53,2.67,6.7,3.47,9.28.8,2.58,2.58,7.55,4.03,11.02,3.05,7.55,6.47,19.12,7.5,25.64.98,6.09.98,17.06.05,22.12-1.45,7.64-5.58,17.62-10.31,24.94-3.05,4.73-14.48,16.22-19.03,19.17-6.61,4.27-13.36,7.36-17.95,8.2-2.3.42-5.48,1.27-7.12,1.88-1.64.61-5.16,1.64-7.83,2.3-5.02,1.22-21.94,8.3-26.81,11.25-3.14,1.88-17.53,12.05-21.33,15.09-4.92,3.89-22.17,21.19-24.94,25.03-12.47,17.11-15.14,21.33-17.72,27.89-4.87,12.23-5.62,15.98-6.14,30.94-.38,12.28-1.08,18.23-2.77,24.51-1.08,3.84-3.66,9.28-5.02,10.55-1.41,1.27-10.31,4.08-12.98,4.12-1.31,0-3.42.19-4.73.42-1.27.28-3.47.61-4.83.75-1.92.23-2.44.47-2.34,1.08.19.89,1.97.94,10.45.14,4.41-.38,6.75-.89,10.73-2.25,2.81-.94,5.62-2.2,6.33-2.81,1.36-1.12,4.13-6.47,5.34-10.26,2.06-6.47,2.86-13.31,3.37-29.3.33-9.61.98-13.5,3.56-21,2.81-8.2,5.91-14.11,11.16-21.42,2.58-3.61,6.23-8.67,8.11-11.25,3.52-4.87,19.08-20.62,25.22-25.55,4.64-3.75,20.58-14.72,23.25-16.08,7.64-3.84,20.11-8.95,24.33-9.98,2.58-.61,5.86-1.55,7.27-2.11,1.41-.56,4.59-1.41,7.03-1.87,4.92-.98,13.36-4.83,19.45-8.91,4.36-2.95,16.41-15.19,19.22-19.55,5.25-8.2,9.33-18.28,10.83-26.81.89-5.3.7-16.12-.47-22.55-1.03-5.77-5.44-19.87-8.2-26.25-1.27-3-2.91-7.31-3.61-9.61-.66-2.3-2.34-6.7-3.7-9.8-3.19-7.17-3.75-10.5-3.33-19.36.56-13.31,5.95-35.11,13.87-56.34,1.92-5.2,3.61-8.2,10.17-17.95,8.67-12.84,17.62-24.98,23.11-31.26,4.36-4.97,8.77-11.76,12.23-18.75,1.78-3.61,3.23-6.75,3.23-6.98s.75-1.55,1.69-2.91c.94-1.41,2.2-3.66,2.81-5.02,1.08-2.34,1.08-2.44.19-2.44-.56,0-1.22.61-1.69,1.5h0Z"/>
      <path class="cls-1" d="M272.59,22.92c-.09.38-.66,2.02-1.17,3.7-1.73,5.34-6.56,13.59-10.31,17.62-1.88,2.02-4.78,5.34-6.42,7.41-6.05,7.59-17.48,24.33-20.48,30.05-7.12,13.5-15.09,31.69-17.16,39.14-2.3,8.39-3.56,23.01-3.52,40.55.05,15.61,1.08,22.83,4.59,31.64,2.39,6,3.52,10.31,5.16,20.39,2.77,16.59,3,29.91.7,40.31-2.02,9.23-3.28,11.53-10.87,19.17-6,6.09-10.41,8.95-16.55,10.83-3.52,1.08-4.59,1.17-12.94,1.17-8.77,0-9.23-.05-13.08-1.36-8.3-2.81-10.92-4.27-16.03-8.81-1.59-1.45-4.78-4.03-7.12-5.77-2.3-1.78-5.81-4.73-7.78-6.66-12.37-11.95-35.34-27-49.26-32.2-8.11-3.05-19.83-5.34-27.56-5.39-4.55-.05-5.3.09-10.08,1.78-6.37,2.2-14.91,7.08-18.84,10.73-4.69,4.41-9.52,11.48-12.33,18.09-1.45,3.37-1.55,4.64-.28,3.28.37-.38,1.69-2.48,2.95-4.69,3-5.2,7.12-10.73,10.69-14.25,5.91-5.91,20.44-12.89,26.76-12.89s21.42,3.14,27.98,5.91c14.3,6,35.67,20.11,47.44,31.36,2.06,1.97,6.09,5.34,8.91,7.5,2.86,2.16,6.52,5.11,8.2,6.56,3.42,3.05,8.2,5.44,15.09,7.69l4.55,1.45,9.75-.19c8.91-.19,10.08-.28,13.27-1.36,5.16-1.73,7.41-2.77,11.06-5.16,3.8-2.44,12.47-11.16,14.86-14.86,1.73-2.77,3.7-8.39,4.83-13.83,1.13-5.48,1.36-18.61.47-26.48-1.5-13.31-3.47-23.48-5.72-29.53-4.36-12-5.06-15.23-5.86-27.05-.52-8.16-.33-13.03.98-28.5,1.27-14.62,2.02-17.86,6.89-30.19,9.14-23.2,24.42-48.05,39.7-64.5,2.25-2.44,3.7-4.69,5.72-8.67,2.58-5.2,4.41-10.41,4.41-12.47,0-1.27-1.31-2.48-1.59-1.55Z"/>
      <path class="cls-1" d="M350.44,26.72c-1.64.89-5.2,3.8-8.67,7.12-3.28,3.14-8.16,7.59-10.87,9.94-8.67,7.55-14.34,14.02-26.06,29.72-11.86,15.84-17.81,25.83-27.51,46.17-6.37,13.41-7.5,16.83-7.55,22.97,0,8.62,1.69,11.58,8.16,14.34,3.33,1.41,3.7,1.45,7.73,1.22,4.97-.38,12.94-1.78,17.44-3.09,1.73-.56,6.05-1.5,9.56-2.11,3.47-.66,7.27-1.41,8.44-1.64,1.12-.28,4.92-.66,8.39-.8,5.48-.28,6.98-.19,11.25.7,10.73,2.25,19.17,5.95,24.8,10.87,3.94,3.52,9.47,12,11.95,18.47.61,1.55,1.78,3.98,2.58,5.39.84,1.41,1.73,3.19,2.02,3.98.28.75,1.27,2.77,2.16,4.45,3.23,6.09,4.5,8.77,6,12.89.84,2.3,2.44,6.66,3.52,9.61,1.08,2.95,2.86,7.83,3.98,10.78,1.08,2.95,2.34,6.66,2.77,8.2.42,1.55,1.78,5.95,3.05,9.84,1.27,3.84,2.77,8.91,3.33,11.2,1.45,6.14,6.28,18.94,7.83,20.81,3.09,3.89,7.36,4.41,12.56,1.64,7.78-4.08,10.45-6.47,19.97-17.48,1.64-1.92,3.98-4.17,5.16-4.97,1.92-1.31,2.67-1.5,6.8-1.78,4.12-.28,5.06-.19,9.28.94,6.61,1.73,12.42,1.78,16.55.05,8.58-3.56,18.75-14.91,25.17-28.17,4.92-10.12,5.62-12.09,8.2-22.31,4.69-18.94,7.36-37.87,7.83-55.59l.28-10.31-2.02-7.27c-3.52-12.98-11.02-30-17.86-40.59-2.86-4.36-3.98-5.67-4.45-5.16-.19.14,1.92,4.78,4.64,10.27,5.86,11.76,11.25,24.94,14.01,33.98,1.92,6.42,1.92,6.56,2.16,15.19.09,4.78-.05,10.97-.33,13.69-.28,2.77-.75,7.27-1.03,10.03-1.17,11.91-6.75,38.06-9.89,46.26-2.58,6.75-7.69,16.83-10.5,20.72-6.47,9-13.17,15-19.17,17.3-2.86,1.08-3.75,1.22-6.8.98-1.92-.14-4.97-.7-6.8-1.27-2.86-.89-4.03-.98-8.95-.75-7.73.33-9.56,1.36-16.36,9.47-7.5,8.95-9.37,10.59-17.2,14.91-6.33,3.52-7.97,2.3-12.09-8.91-1.5-4.12-3.33-9.7-3.98-12.37-1.27-5.02-4.64-15.8-7.59-24.09-4.92-14.06-6.23-17.72-7.73-21.33-.94-2.2-1.92-4.83-2.25-5.86-.33-1.03-3.09-6.75-6.09-12.66-3-5.95-5.77-11.62-6.09-12.66-2.02-6.09-9.37-16.22-14.77-20.25-3.47-2.58-11.77-6.52-17.02-8.06-1.73-.52-5.58-1.41-8.53-1.97-4.55-.84-6.28-.94-11.02-.7-3.09.19-7.64.7-10.08,1.22-2.44.47-6.75,1.36-9.61,1.87-2.81.56-6.42,1.45-7.97,1.92-3.37,1.08-15.47,3.23-18.09,3.23-2.44,0-7.41-2.3-8.95-4.13-2.44-2.91-2.77-11.91-.66-18.05,1.36-4.03,10.55-23.16,15.19-31.64,6.42-11.77,18.09-28.45,29.86-42.7,6-7.36,7.59-9,15.05-15.56,3.05-2.67,7.97-7.22,10.87-10.03,5.3-5.11,8.81-7.92,10.5-8.48.47-.14.75-.47.61-.7-.52-.8-2.34-.42-5.06,1.08h0Z"/>
      <path class="cls-1" d="M163.09,32.95c0,.14.98,1.45,2.16,2.91,4.45,5.44,5.44,9.94,3.98,18.28-2.95,17.39-6.89,23.67-25.78,41.39-6.84,6.42-8.02,7.88-13.31,16.83-3.98,6.8-5.06,9.84-5.34,15.75-.23,4.73-.09,5.72,1.41,12.19.89,3.84,2.3,8.67,3.09,10.64.8,2.02,1.78,5.39,2.2,7.5.7,3.66.7,4.08-.14,7.36-.47,1.92-1.17,3.7-1.59,3.94-1.27.8-3.37-.42-11.39-6.61-8.48-6.52-10.36-7.64-15.61-9.05-7.12-1.97-12.42-4.45-13.92-6.61-.94-1.31-.98-5.16-.05-9.47.66-3,6.28-17.01,8.2-20.3.75-1.27.75-1.5.14-1.73-.38-.14-.89-.19-1.08-.05-1.22.75-8.06,15.37-9.56,20.34-1.22,4.17-1.45,9-.52,10.97,1.41,2.95,5.58,5.44,13.27,7.92,7.22,2.3,7.27,2.34,18.94,11.58,5.39,4.27,8.62,5.86,11.25,5.53,2.63-.33,3.84-1.73,4.83-5.3,1.22-4.45.8-9.52-1.17-14.95-.84-2.34-2.34-7.41-3.37-11.25-1.73-6.7-1.83-7.31-1.59-12.56.19-5.34.28-5.72,2.11-9.56,2.86-5.95,8.39-14.58,11.06-17.25,1.27-1.31,4.92-4.64,8.06-7.41,5.67-5.02,11.02-10.59,13.03-13.55,4.97-7.45,6.75-11.02,8.16-16.55,3.23-12.47,3.09-19.03-.47-24.7-2.06-3.19-6.98-7.59-6.98-6.23h0Z"/>
      <path class="cls-1" d="M204.34,34.73c0,.09.28.8.66,1.55,1.45,3,1.41,4.97-.42,11.25-1.73,6.05-3,9.09-5.06,11.77-2.48,3.37-16.12,18-20.86,22.5-5.25,4.92-5.62,5.44-12.61,16.31-9.98,15.56-12.52,22.64-14.48,40.31-1.12,10.45-.75,13.12,3.56,26.48,2.06,6.37,4.5,16.64,5.62,23.48,1.78,11.02,1.5,19.92-.7,24.33-1.45,2.91-2.72,3.75-6.05,4.08-4.36.47-5.95-.47-12.66-7.27-6.75-6.89-8.81-9.42-10.73-13.41-2.16-4.5-4.45-7.27-7.78-9.42-3.66-2.34-12.28-6.75-17.06-8.62-1.83-.75-4.83-2.06-6.61-2.86-5.25-2.39-13.31-4.27-31.36-7.22-5.39-.89-10.92-3.42-13.5-6.23-2.25-2.44-3.8-5.67-4.92-10.12-.61-2.58-.94-3.14-1.73-3.14-.89,0-.94.23-.7,3.61.28,3.84,1.78,8.25,3.7,10.97,2.67,3.75,8.95,6.61,17.62,7.92,9,1.36,19.73,3.56,23.62,4.87,8.02,2.67,26.91,11.62,30.37,14.44,1.59,1.27,4.08,4.83,5.25,7.41,1.5,3.37,3.8,6.23,10.41,12.98,7.97,8.11,9.09,8.77,14.53,8.48,4.5-.23,6.98-1.31,9.19-3.98,1.92-2.34,2.81-5.11,3.33-10.69.98-9.89-1.55-24.61-7.27-42.42-3.42-10.64-3.8-13.41-3.05-21.47,1.55-17.34,4.12-25.45,12.14-38.06,1.55-2.44,4.13-6.56,5.72-9.14,2.39-3.84,4.27-6,10.31-11.95,11.25-11.06,19.64-20.62,21.7-24.75.94-1.92,2.95-9.09,3.75-13.45.38-1.83-.8-6.56-1.83-7.73-.7-.8-2.11-1.31-2.11-.8h0Z"/>
      <path class="cls-1" d="M178.56,39.14c0,.23.94.94,2.02,1.59,2.25,1.36,4.78,4.83,5.48,7.5.28.98.66,3.47.84,5.58.38,3.56.33,3.89-.8,5.53-1.59,2.44-3.98,5.39-7.36,9.23-1.55,1.78-4.73,5.58-6.98,8.44-4.22,5.3-8.53,10.27-14.77,16.87-6.37,6.75-13.27,17.91-15.89,25.69-3,8.77-3.56,12.09-3.52,20.72.05,9.89.84,15,3.75,23.01,2.81,7.92,4.03,12,5.48,18.23l1.22,5.16-1.83,3.75c-2.2,4.55-3.19,5.62-5.02,5.2-1.69-.42-8.11-7.03-11.86-12.28-1.88-2.58-3.98-4.78-6-6.33-1.69-1.27-4.97-4.03-7.27-6.14-8.91-8.25-12.56-9.61-28.22-10.69-11.39-.75-15.7-2.91-15.7-7.88,0-3.98,3.52-14.16,8.67-25.08,1.73-3.7,1.83-4.69.33-3.8-2.58,1.59-11.11,21.98-11.67,27.94-.23,2.3-.09,2.95.98,4.78,2.16,3.66,6.28,5.11,16.69,5.91,14.39,1.12,17.86,2.48,26.01,10.36,1.83,1.73,4.92,4.36,6.89,5.86,2.39,1.87,4.55,4.03,6.37,6.56,3.28,4.45,8.48,10.08,11.06,12,4.41,3.19,8.25.89,12.05-7.31l1.5-3.19-1.27-5.72c-1.5-6.84-2.81-11.25-5.62-19.26-2.44-6.98-3.56-13.97-3.56-22.31,0-15.89,7.12-31.55,20.91-45.89,7.69-7.97,9.61-10.12,12.98-14.44,1.69-2.16,4.5-5.53,6.28-7.45,3.56-3.98,8.81-10.55,9.61-12,.66-1.27.14-7.88-.89-10.87-1.45-4.36-4.13-7.55-7.5-9-1.64-.66-3.42-.8-3.42-.28Z"/>
      <path class="cls-1" d="M152.31,41.58c0,.23.94,2.63,2.06,5.3,2.81,6.52,3.75,10.27,3.38,13.59-.28,3-2.48,9.33-4.31,12.52-1.69,2.86-8.02,9.33-12.28,12.56-4.69,3.52-4.55,3.37-18.75,19.97-3,3.47-6,9.42-6.7,13.27-.84,4.45-.23,14.11,1.17,19.36,1.31,4.83,1.55,9,.61,10.83-.52,1.03-.89,1.17-2.81,1.08-3.56-.09-6.14-1.69-9-5.48-4.78-6.33-5.44-9.66-3.98-19.26,1.17-8.02,5.11-21.19,7.5-25.41.56-.94.7-1.64.42-1.83-1.87-1.12-6.28,8.48-9.33,20.2-.52,2.06-1.31,6.42-1.73,9.75-.7,5.53-.7,6.19.05,9.14.84,3.47,4.69,9.7,7.55,12.23,2.77,2.44,9.23,3.66,12.14,2.34.66-.33,1.5-1.22,1.92-2.06.98-2.16.89-7.73-.19-12-1.55-5.77-2.02-10.92-1.55-16.08.42-4.17.66-5.06,2.62-8.91,1.41-2.72,3.23-5.34,5.06-7.31,1.55-1.69,3.94-4.31,5.2-5.86,5.72-6.84,7.41-8.53,11.81-11.86,2.58-1.92,6.42-5.3,8.53-7.45,3.14-3.19,4.27-4.73,5.95-8.25,3.52-7.22,4.27-11.86,2.81-16.78-.89-3.05-4.5-10.36-6.09-12.52-1.12-1.45-2.06-1.97-2.06-1.08h0Z"/>
      <path class="cls-1" d="M372.38,45.37c-2.58.19-6.05.7-7.73,1.12-3.8.98-10.59,4.59-16.41,8.72-2.44,1.73-5.91,3.98-7.73,4.92-3.42,1.88-10.55,6.56-14.48,9.52-1.27.94-3.14,2.34-4.17,3.14-1.08.8-3.42,3.66-5.34,6.56-1.92,2.81-5.02,7.03-6.94,9.37-4.03,4.97-17.16,24.51-19.03,28.31-.7,1.45-1.55,3.89-1.83,5.44-.33,1.55-1.22,4.17-1.97,5.86-2.16,4.64-2.34,6.05-1.5,10.17,1.27,6.23,2.34,8.48,4.73,9.98,3.09,1.97,5.95,2.16,12.98.98,3.23-.56,6.98-1.41,8.34-1.87,4.31-1.5,10.73-2.81,16.31-3.38,2.95-.28,5.48-.56,5.62-.66.89-.52,11.48-.7,13.87-.23,5.63,1.12,12.52,3.33,14.44,4.64,3.37,2.34,14.01,11.95,17.72,16.03,5.3,5.81,7.5,9.09,12.56,18.94,1.64,3.09,3.66,6.84,4.55,8.3,3.98,6.66,9.23,20.3,12.8,33.19,1.03,3.7,2.48,7.97,3.19,9.56,3.47,7.31,12.19,18.47,15.75,20.16,2.16,1.03,7.03.98,10.45-.09,1.5-.47,4.87-2.2,7.41-3.84,2.58-1.64,5.72-3.47,6.98-4.08,3.84-1.92,10.17-3.75,13.87-4.08,13.97-1.27,13.5-1.12,18.61-4.31,2.44-1.55,3.8-2.77,5.06-4.69,3.66-5.48,7.73-15.7,10.03-25.03.52-1.92,1.41-5.3,2.06-7.5s1.41-5.67,1.73-7.73c.66-4.45,2.2-10.55,4.69-18.28,3.61-11.25,5.2-17.44,6.14-23.67,1.17-7.78.98-10.17-1.55-18.98-3.28-11.58-6.09-16.27-14.44-24.28-5.91-5.72-8.81-8.02-12.33-9.8-5.53-2.77-6.09-1.87-.98,1.55,3.75,2.48,11.91,9.94,16.17,14.77,5.11,5.81,6.8,9.28,10.12,21.05,2.48,8.91,1.73,16.92-3,32.53-5.3,17.34-6.19,20.76-6.94,25.45-.37,2.48-1.22,6.14-1.83,8.2-.61,2.02-1.27,4.41-1.45,5.3-.75,3.89-4.27,14.2-6.33,18.52-3.09,6.51-4.36,8.06-8.58,10.5-3.28,1.83-4.08,2.11-8.91,2.67-2.86.33-6.42.61-7.83.66-5.25,0-13.5,2.95-20.11,7.17-6.66,4.22-9,5.16-13.41,5.39l-3.75.19-2.48-1.92c-2.63-2.06-5.02-4.92-8.53-10.12-3.56-5.3-5.48-9.61-7.45-16.73-3.94-14.16-8.44-26.06-12.75-33.42-1.17-2.06-3.47-6.33-5.11-9.52-4.92-9.75-7.73-13.59-15.66-21.42-8.02-7.97-13.92-12.94-17.39-14.53-1.27-.61-4.97-1.78-8.2-2.63-5.48-1.36-6.23-1.45-11.58-1.17-11.2.52-18.33,1.59-27.09,4.03-8.3,2.3-15.42,3.52-18.14,3.09-4.22-.66-5.62-2.25-7.17-8.11-1.17-4.41-.98-7.08.61-10.31.8-1.55,1.78-4.27,2.2-6.05.42-1.78,1.22-4.31,1.83-5.58.94-2.02,5.77-9.7,8.86-14.06.56-.8,2.39-3.42,4.03-5.86,1.64-2.44,4.55-6.37,6.37-8.67,1.87-2.34,4.59-6,6.09-8.2,3.66-5.39,4.45-6.28,7.59-8.48,1.5-1.03,4.41-3.09,6.47-4.64,2.06-1.5,5.58-3.75,7.83-4.92,2.2-1.17,6.09-3.61,8.67-5.44,9.05-6.47,13.92-8.53,21.47-9.09,2.06-.14,5.06-.38,6.61-.52,3.37-.28,13.08.52,17.95,1.5,1.88.38,5.48,1.41,7.97,2.25,7.22,2.48,29.3,12.98,38.01,18.14,23.3,13.69,30.23,18.05,34.92,21.94,1.78,1.5,2.39,1.78,2.48,1.22.28-1.22-1.03-2.72-5.63-6.42-9.84-7.97-33.33-22.03-47.01-28.17-2.58-1.17-6.56-3.05-8.91-4.17-15.33-7.5-26.62-9.61-44.53-8.34h0Z"/>
      <path class="cls-1" d="M370.46,65.3c-13.03,1.97-24.61,7.03-33.09,14.53-7.55,6.7-16.55,16.78-21.47,24.14-1.12,1.69-2.44,3.37-2.91,3.75-.47.37-1.83,2.48-3,4.69-1.92,3.47-2.2,4.36-2.2,6.8,0,1.55.23,3.61.56,4.55.7,2.16,3.8,4.78,7.08,6.05,3.56,1.36,16.27,2.86,21.09,2.48,6.98-.52,19.97,1.03,30,3.56,15.19,3.84,25.92,9.98,31.22,17.81,1.55,2.3,7.59,14.86,8.77,18.28,1.69,4.78,4.59,16.64,5.67,23.2,1.31,7.55,1.41,8.02,3.84,16.03,1.69,5.72,3.52,9.66,6.37,13.87,2.44,3.56,4.55,5.67,8.39,8.11,3.56,2.34,7.36,3.47,11.44,3.52,3.05,0,4.59-.42,10.31-3.09,4.64-2.11,9.61-3.28,16.64-3.98,9.98-.94,12.47-2.16,15.19-7.41.52-.98,1.31-5.48,2.2-12.42.75-6,1.59-11.62,1.83-12.56.28-.94.98-4.22,1.59-7.27.66-3.09,1.78-7.83,2.58-10.5,3.84-12.8,5.72-27.75,4.31-34.22-2.53-11.81-14.34-32.72-23.3-41.25-5.11-4.83-28.73-21.05-36.05-24.75-7.41-3.7-28.87-11.44-34.64-12.47-8.25-1.5-26.58-2.3-32.44-1.45ZM392.07,68.86c8.02.56,12.61,1.36,17.34,3.09,1.83.61,5.06,1.73,7.27,2.44,4.17,1.36,16.45,6.42,20.3,8.3,2.53,1.31,9.84,5.91,22.59,14.34,13.27,8.77,16.22,11.86,24.61,25.59,4.83,7.97,6.61,11.58,8.95,18.05q1.92,5.25,1.97,12.28c0,7.78-1.03,14.3-4.12,25.08-2.39,8.39-4.73,20.39-6.09,31.17-.7,5.39-1.5,10.45-1.83,11.25-1.64,3.94-4.87,5.44-13.41,6.33-5.86.61-11.62,1.69-13.87,2.62-.89.38-3,1.31-4.64,2.06-5.3,2.44-7.92,3-11.06,2.39-3.56-.7-5.62-1.59-8.81-3.8-4.36-2.95-8.11-7.69-10.78-13.64-1.92-4.31-5.02-15.61-6.19-22.64-.52-3.33-1.36-7.55-1.87-9.37-.52-1.83-1.45-5.44-2.11-8.02-1.41-5.58-2.81-9.14-6.89-17.58-5.11-10.45-9.19-14.53-19.78-19.73-12.09-5.91-30.19-9.47-45.47-9-5.77.19-17.3-.8-19.69-1.73-1.92-.75-5.95-4.36-6.61-5.91-1.27-3.09-1.31-4.22-.05-6.94,1.73-3.7,6.98-12,10.5-16.55,3.75-4.83,16.31-17.39,19.55-19.55,8.86-5.86,21.94-10.45,31.92-11.16,2.81-.23,10.36.05,18.28.61h0Z"/>
      <path class="cls-1" d="M365.11,82.64c-9.84,2.16-19.92,5.81-24.84,9.05-3.84,2.58-10.08,8.72-12.56,12.47-1.88,2.86-2.2,3.66-2.34,6.28-.37,5.48,1.83,8.53,7.64,10.55,2.48.89,9.94,2.06,16.69,2.67,5.34.47,17.3,3.14,23.16,5.16,1.55.56,5.58,1.69,8.95,2.58,15.47,3.98,24.84,9.47,30.56,17.95,2.16,3.09,5.34,9.33,6.66,12.89.47,1.31,1.64,5.58,2.58,9.47,1.55,6.19,1.78,8.02,2.06,15.47.19,4.69.52,8.77.7,9.09.23.33.7,3.14,1.03,6.23.42,3.37,1.08,6.56,1.64,7.92,1.73,3.98,9.19,10.12,13.69,11.25,3.61.89,8.48.33,12.28-1.41,2.67-1.22,4.59-1.69,10.27-2.44,7.69-.98,10.41-1.97,12.28-4.45,1.27-1.64,1.31-2.44.89-10.27-.19-3.47-.8-7.64-1.55-10.78-.98-4.22-1.22-6.23-1.22-11.25v-6.09l3.33-11.34c5.06-17.2,5.53-23.16,2.34-29.91-2.25-4.73-7.55-12.09-10.5-14.58-9.8-8.25-33.09-24.37-40.92-28.31-5.67-2.86-14.16-6.05-20.06-7.59l-5.48-1.45-16.17-.09c-15.42-.14-16.41-.09-21.09.94h0ZM408.24,86.76c3.47.89,7.92,2.34,9.84,3.14,1.92.8,4.27,1.73,5.2,2.11,7.59,2.81,34.26,20.67,44.76,30,3.28,2.91,8.39,10.22,10.22,14.62,2.11,5.06,1.5,10.36-2.95,25.69-1.55,5.39-3.09,11.44-3.37,13.36-.7,4.73-.23,12.05,1.22,17.58.66,2.53,1.27,6.47,1.41,9.05.14,2.48.37,5.25.52,6.05.09.84,0,1.97-.28,2.48-.89,1.69-4.27,3.23-8.2,3.75-7.87,1.03-9.98,1.5-14.06,3.14-7.97,3.23-12.56,2.2-19.83-4.31-3.19-2.86-4.22-4.97-4.83-9.75-.23-2.11-.89-6.28-1.41-9.23-.7-3.89-.89-6.28-.66-8.67.38-4.08-.23-8.25-2.62-17.48-2.58-10.22-6.42-18-12.42-25.08-4.92-5.81-14.95-11.16-26.2-13.92-2.34-.56-6.84-1.83-10.08-2.81-10.12-3.14-17.16-4.69-23.91-5.2-15.61-1.17-21.23-3.09-21-7.03.05-.37-.33-1.83-.8-3.14-.89-2.44-.89-2.48,0-4.22,1.31-2.39,7.41-8.72,10.78-11.11,5.06-3.61,14.58-7.27,25.55-9.8,4.78-1.12,5.44-1.12,20.86-1.03l15.94.14,6.33,1.69h0ZM327.71,113.11c.14.61.05,1.03-.14.89-.42-.23-.61-2.06-.23-2.06.09,0,.28.52.38,1.17Z"/>
      <path class="cls-1" d="M362.25,95.72c-.19.19-2.63.52-5.44.7-5.48.42-7.31,1.08-11.48,4.12-4.13,3-5.2,6.33-2.91,9,1.5,1.78,6.7,4.31,11.44,5.58,1.92.52,7.22,1.69,11.72,2.63,9.89,2.02,28.92,8.11,35.06,11.25,7.59,3.8,14.53,8.72,17.77,12.52,2.48,2.95,5.48,8.11,6.33,10.97,1.92,6.61,3.84,15.47,4.59,21.66.52,4.08,1.27,8.86,1.64,10.69.38,1.78.84,5.48,1.12,8.2.23,3.09.8,5.72,1.36,7.03,1.22,2.72,4.87,7.31,6.8,8.44,3.56,2.2,12.47,3,17.16,1.59,3-.89,6.8-4.17,7.59-6.61.8-2.48.14-8.11-1.5-12.94-1.17-3.37-1.41-4.87-1.41-8.25,0-5.91,1.55-13.92,3.84-19.97,1.64-4.31,2.02-5.91,2.25-9.84.42-6.28-.38-10.36-2.63-14.06-6.09-10.03-11.11-15.23-20.76-21.56-10.83-7.12-14.86-9.09-26.01-12.8-2.3-.75-7.27-2.44-11.02-3.75-5.72-1.92-7.78-2.39-12.66-2.86-3.23-.33-7.55-.8-9.61-1.03-4.83-.56-22.87-1.12-23.25-.7h0ZM378.24,99c10.83.56,21.7,1.78,25.22,2.86,9.75,3,22.03,7.59,27.52,10.27,9.19,4.55,18.42,10.78,23.11,15.61,5.16,5.34,10.55,13.45,11.58,17.48,1.27,4.92.66,9.98-2.11,18.28-1.83,5.48-2.44,8.06-3.05,13.31-.89,7.5-.56,11.44,1.41,16.31.7,1.69,1.27,4.31,1.45,6.42.28,3.23.19,3.7-.75,4.87-2.44,3.05-8.25,4.55-14.2,3.66-5.06-.8-7.78-2.25-10.17-5.39-2.81-3.75-3.8-6.66-4.22-12.94-.19-3-.61-6.28-.89-7.27-.23-1.03-.8-4.5-1.17-7.73-.98-7.97-1.5-10.41-3.66-18-3.66-12.89-8.25-19.08-19.22-25.87-6.52-4.03-11.16-6.05-23.11-10.03-7.69-2.58-13.08-4.03-18.75-5.11-11.48-2.25-17.58-4.03-20.48-6.09-3.42-2.39-3.61-2.86-2.16-5.06,1.87-2.86,5.3-4.45,10.69-4.92,2.44-.19,5.72-.56,7.27-.75,2.77-.33,7.78-.28,15.7.09h0Z"/>
      <path class="cls-1" d="M365.54,101.34c-.14.14-2.25.7-4.64,1.27-4.55.98-7.17,2.34-6.94,3.56.47,2.44,9.52,5.3,26.16,8.34,9.94,1.83,10.92,2.06,16.12,4.08,6.94,2.67,8.25,3.33,15.98,8.11,6,3.75,7.78,5.11,11.76,9.23,5.34,5.53,7.08,8.06,9.33,13.59,3.14,7.73,4.13,14.48,3.94,27.47l-.14,9.23,1.59,3.75c2.3,5.44,6.23,9.23,10.83,10.55,2.11.61,4.83-.19,6.05-1.78,1.17-1.45,1.12-2.34-.23-10.55-.8-4.83-.8-5.3-.05-9.84.42-2.63,1.5-7.31,2.39-10.41.89-3.09,1.73-6.7,1.92-7.97.14-1.31.61-3.05.94-3.94.89-2.16.84-3.84-.33-7.73-1.22-4.03-2.34-6.28-4.64-9.42-2.81-3.75-9.75-10.22-13.83-12.89-2.06-1.41-4.64-3.23-5.67-4.08-4.08-3.28-9.94-6.28-20.44-10.45-11.3-4.5-14.11-5.25-31.55-8.67-6.23-1.22-17.91-2.16-18.56-1.45ZM381.52,105.09c20.95,4.12,20.58,4.03,34.92,9.66,8.44,3.28,11.48,4.78,15.28,7.36,1.41.98,4.59,3.09,7.03,4.73,10.36,6.98,16.45,13.78,18.89,21.09,1.27,3.8,1.55,6.7.75,8.77-.23.66-.66,2.63-.94,4.36-.28,1.73-1.12,5.06-1.87,7.36-1.31,3.98-2.53,9.8-3.14,14.77-.14,1.31.19,3.94.8,6.8,1.73,8.16,1.73,8.06,0,8.44-.8.19-2.16.19-2.95.05-1.92-.38-6.84-4.22-6.8-5.3.05-.47-.8-2.2-1.78-3.89l-1.83-3.05v-10.31c-.05-13.73-.84-19.36-3.84-27.42-2.16-5.81-4.97-10.03-10.22-15.28-3.37-3.37-5.48-5.02-10.55-8.02-7.92-4.73-10.27-5.91-16.41-8.25-6.89-2.58-6.56-2.48-18.28-4.59-5.81-1.03-12-2.3-13.83-2.86-11.11-3.33-11.72-3.75-7.17-4.55,1.64-.28,3.61-.7,4.36-.98,2.3-.75,10.78-.19,17.58,1.12Z"/>
      <path class="cls-1" d="M425.02,124.12c-.47.28-.84.75-.84,1.08,0,.28,1.36,1.92,3,3.61,3.8,3.84,12.56,16.92,13.31,19.73,1.78,7.22,2.53,11.77,2.91,17.77.56,9.09.8,10.55,1.87,11.48.89.8.98.8,1.87,0,.52-.47,1.03-1.59,1.17-2.53.19-.94.8-3.19,1.41-4.97,1.97-5.72,3.52-13.27,3.52-16.78-.05-4.08-1.08-6.84-4.78-12.52-2.86-4.41-5.58-7.12-9.09-9.14-1.27-.75-3.47-2.44-4.92-3.8-3.52-3.33-7.64-5.02-9.42-3.94ZM432.14,129.51c.89.94,2.81,2.48,4.22,3.38,5.02,3.23,6.89,5.2,10.08,10.45,3.89,6.47,4.41,7.73,4.5,11.11.09,2.77-.28,4.87-1.97,11.39-1.41,5.3-1.73,6.66-2.11,8.2l-.33,1.41-.37-1.88c-.19-1.03-.38-4.03-.38-6.66-.05-3.52-.42-6.52-1.45-11.25-1.87-8.53-2.53-10.45-4.87-13.92-1.08-1.55-2.81-4.31-3.8-6.05-.98-1.78-3.09-4.59-4.69-6.23-1.88-1.87-2.48-2.72-1.69-2.34.66.38,1.97,1.45,2.86,2.39Z"/>
      <path class="cls-1" d="M297.71,208.12c-.38.38-1.73.56-3.52.52-1.64-.05-4.41.33-6.42.84-3.19.89-4.83,1.55-9.14,3.84-.75.42-2.58,1.31-3.98,1.97-4.69,2.25-10.64,8.34-11.81,12.09-.52,1.73-.61,8.11-.14,11.72.52,4.31,2.02,9,5.44,17.3,4.69,11.39,10.83,27.47,12.84,33.75,2.77,8.44,4.36,15.51,5.86,26.01,2.3,15.89,1.92,24.09-1.64,36.33-2.3,7.92-7.69,30.7-9.09,38.62-4.78,26.3-3.8,44.34,3.75,69.51,2.77,9.09,4.92,13.55,10.69,21.61,2.3,3.23,6.7,9.56,9.8,14.06,3.09,4.5,6.05,8.62,6.52,9.14.47.52,3.19,3.8,6.05,7.27,5.67,6.89,8.3,10.64,12.94,18.52,1.69,2.81,3.94,6.61,5.02,8.39,3.14,5.06,6.51,12.14,8.02,16.73,3,9.09,4.36,20.53,3.37,28.08-.23,1.92-.37,3.56-.33,3.66.42.52,1.69-.8,2.39-2.39,1.17-2.91,1.45-14.62.47-20.3-1.59-9.19-5.2-17.86-11.77-28.31-1.83-2.95-4.59-7.45-6.05-9.98-3.09-5.3-6.8-10.31-13.27-17.95-2.53-2.95-6-7.45-7.78-9.94-1.73-2.48-5.95-8.48-9.37-13.31-3.37-4.83-7.22-10.55-8.44-12.66-3.33-5.81-7.41-18.94-10.03-32.25-1.03-5.39-1.27-7.97-1.41-17.34-.37-18.98,1.5-30.7,10.69-66.09,4.78-18.52,5.16-23.91,2.77-40.5-.8-5.39-1.83-11.62-2.3-13.83-2.02-9-7.88-25.83-14.81-42.23-5.53-13.08-6.23-14.86-6.98-18.14-.42-1.97-.75-5.44-.75-8.25,0-4.5.09-5.06,1.45-7.78,1.73-3.42,5.44-7.64,8.11-9.14,2.63-1.5,13.69-5.2,18.37-6.09,13.55-2.67,29.72,2.48,42.47,13.41,4.59,3.94,8.44,12.61,13.08,29.44.8,2.95,2.06,7.59,2.86,10.31,2.3,8.3,3.61,14.48,4.36,20.76,1.31,10.64,6,33.19,8.16,39.23,5.48,15.33,9.42,19.97,21.61,25.22,6.42,2.77,7.64,3.14,11.95,3.8,6.23.89,7.5.98,12.66,1.03,4.31,0,6.05-.23,10.55-1.45,6.61-1.73,12.19-4.41,15.37-7.27,1.36-1.22,3.94-4.13,5.81-6.47,4.22-5.39,12.47-15.23,13.03-15.56.28-.14,1.27-1.69,2.3-3.42,3.56-6.05,8.48-11.02,16.22-16.31,2.06-1.41,4.78-3.28,6.05-4.17,2.86-2.06,5.06-2.16,13.36-.42,7.17,1.5,12.23,1.41,15.37-.19,2.25-1.17,6.37-4.5,9.8-7.97,2.91-2.91,8.02-11.06,11.53-18.37,6.47-13.41,16.08-23.72,23.44-25.08,1.5-.28,1.92-.14,3.56,1.36,1.03.94,2.63,3.14,3.52,4.97.94,1.78,2.62,4.78,3.75,6.66,4.22,6.98,8.67,16.97,10.22,22.97,1.22,4.78,2.11,12.42,2.58,21.61.19,3.8.47,7.03.7,7.12.19.14.7-.09,1.12-.56.75-.7.8-1.92.56-12.52-.23-12.47-.66-15.56-2.95-21.89-1.59-4.41-6-13.64-7.88-16.55-1.59-2.44-3.89-6.33-6.09-10.22-1.41-2.48-4.08-4.87-5.95-5.3-1.97-.42-6.42.56-9.61,2.11-1.59.8-4.36,2.77-6.14,4.41-4.31,3.98-10.83,13.27-14.06,19.97-3.98,8.16-8.67,15.42-12.23,18.94-3.19,3.09-6.52,5.77-8.39,6.75-1.59.84-5.02.66-11.62-.61-10.31-1.97-13.5-1.55-19.12,2.67-1.83,1.41-5.16,3.8-7.31,5.34-4.5,3.19-9.56,8.39-12.14,12.47-1.87,3.05-3.7,5.44-8.06,10.45-1.55,1.78-4.92,5.95-7.5,9.23-5.11,6.42-7.36,8.39-12.7,10.92-4.36,2.06-13.41,4.45-16.87,4.45-4.27,0-12.56-.98-15.84-1.87-6.98-1.87-14.2-5.81-18.94-10.27-2.11-1.97-5.2-7.78-7.36-13.87-2.63-7.41-7.36-29.53-8.72-40.78-.89-7.5-1.87-11.95-4.69-21.61-1.17-4.08-2.67-9.33-3.28-11.67-3.14-11.53-6.75-20.86-9.89-25.64-1.22-1.83-5.44-5.44-9.98-8.58-1.41-.98-2.77-2.06-2.95-2.44-.19-.33-1.17-1.03-2.11-1.5-2.77-1.41-15.94-5.67-19.69-6.42-4.27-.8-8.62-.84-9.37-.09Z"/>
      <path class="cls-1" d="M299.26,227.2c-2.58.47-5.63,1.12-6.8,1.55-1.17.42-3,1.03-4.12,1.36-1.5.42-2.81,1.41-5.02,3.8-3.33,3.47-3.28,3.37-3.09,9.7.19,7.17,1.83,12.37,8.72,27.7,3.05,6.75,5.86,14.39,6.56,17.86.42,1.92.94,4.08,1.17,4.87.23.75.8,3.7,1.22,6.56,1.03,7.12.66,27.89-.66,37.73-2.86,20.62-2.91,20.76-5.44,34.45-.66,3.42-2.39,14.2-3.56,21.8-.23,1.69-1.03,8.02-1.69,14.06-1.17,10.12-1.22,12-.98,23.44.23,10.59.47,13.31,1.45,18.52,1.83,9.33,6.7,20.25,11.95,26.86,1.36,1.73,4.41,5.95,6.75,9.42,2.67,3.98,5.67,7.69,8.3,10.31,2.25,2.2,4.83,5.2,5.72,6.61.94,1.41,2.58,3.52,3.66,4.69,1.08,1.17,2.48,2.86,3.09,3.75.61.89,3.37,3.8,6.19,6.42,8.67,8.11,12.33,14.58,20.25,35.86.84,2.3,1.73,4.12,1.97,4.12.98,0-.56-5.53-4.55-16.22-4.59-12.23-7.69-17.2-15.42-24.8-2.63-2.58-5.48-5.62-6.33-6.8-.89-1.17-2.48-3.05-3.56-4.22-1.08-1.17-2.53-3.09-3.19-4.31-.7-1.17-2.95-3.94-5.06-6.09-2.06-2.16-5.86-6.94-8.44-10.69-2.53-3.75-5.53-7.97-6.66-9.37-2.63-3.23-6.14-9.61-8.72-15.66-3.19-7.45-5.2-21-5.2-34.73,0-9.14,3.66-36.98,7.5-57.42,1.31-6.98,2.77-16.17,4.69-30.23.52-3.61,1.17-11.62,1.5-17.81.47-10.08.47-11.91-.28-17.11-1.64-11.95-4.41-21.61-9.42-32.81-4.87-10.83-5.81-13.03-6.52-15.23-1.36-4.31-2.16-9.14-2.16-13.08s.05-3.94,1.69-6.05c2.2-2.86,3.7-3.7,8.86-5.16,9.14-2.48,12.37-2.72,19.59-1.22,5.25,1.08,6.75,1.73,12.19,5.3,3.94,2.58,5.58,4.59,10.78,13.41,2.67,4.55,4.36,9.47,5.77,16.69.8,4.22,2.39,20.53,2.77,28.31.47,10.31,1.83,23.62,2.81,27.89.7,3.09,4.27,14.16,5.77,17.81,1.17,2.91,3.52,8.16,5.06,11.25,1.03,2.02,7.97,11.2,11.2,14.77,3.52,3.89,12.42,8.86,20.02,11.11,3.89,1.17,5.06,1.31,11.39,1.31,7.64,0,9.94-.52,16.41-3.56,1.55-.75,4.45-1.97,6.52-2.77,4.64-1.83,8.77-4.13,11.86-6.66,1.31-1.12,4.31-3.52,6.61-5.39,4.45-3.61,6.19-5.53,9.61-10.69,7.83-11.72,23.11-25.92,30.05-27.89,3.19-.89,5.16-.33,9.37,2.58,5.02,3.37,8.81,4.87,13.59,5.3,5.53.47,8.25,0,12.8-2.25,4.64-2.3,7.78-5.2,13.83-12.8,4.17-5.25,6.05-8.53,8.11-14.25,1.64-4.64,4.45-9.47,6.42-11.06,1.41-1.12,1.92-1.27,3.42-.98,2.2.38,7.97,5.48,9.47,8.3,1.27,2.39,1.83,8.02,2.25,21.89.28,9.37.66,11.62,2.02,12.09.7.23.8-20.06.09-27.33-.61-6.23-1.73-8.44-6.37-12.56-3.66-3.19-6.52-4.55-9.66-4.55s-7.12,5.44-10.92,14.72c-2.44,6.09-3.56,7.92-7.78,13.17-4.59,5.62-7.31,8.53-9.56,10.03-2.34,1.64-7.41,3.66-9.84,4.03-4.69.7-11.67-1.55-16.22-5.16-2.62-2.06-6.37-3.52-9.23-3.52-4.36.05-8.67,2.53-17.25,9.94-6.33,5.48-12.61,12.66-19.08,21.89-1.36,1.92-3.8,4.64-5.48,6.05-1.69,1.41-4.5,3.8-6.33,5.34-4.45,3.8-8.39,6.09-15.8,9.09-11.67,4.83-12.28,5.02-18.23,5.25-4.83.19-5.91.05-9.61-.98-5.58-1.59-12.37-4.83-16.03-7.59-2.39-1.83-7.5-7.55-12.84-14.53-1.73-2.2-6.7-13.92-9.33-21.84-3.56-10.83-4.55-17.02-5.58-35.34-.52-9.09-1.97-24.05-2.86-29.06-.89-5.25-3.28-13.12-4.83-15.98-2.39-4.27-6.75-11.25-8.11-12.84-1.27-1.5-7.36-5.72-10.83-7.45-2.44-1.22-10.5-3.14-14.63-3.47-1.78-.09-5.02.14-7.73.56h0Z"/>
      <path class="cls-1" d="M303.9,234.98c-1.59.33-3.52.94-4.22,1.31-2.11,1.08-5.44,4.5-7.69,7.83-3.23,4.73-3.09,8.16.7,16.64.56,1.27,1.22,2.95,1.36,3.75.19.75.84,2.44,1.41,3.75.61,1.27,1.36,3.14,1.64,4.08.33.98,1.73,3.52,3.19,5.62,3.33,5.02,4.55,7.5,5.3,10.69.33,1.41.98,3.52,1.41,4.69.84,2.16,2.06,10.83,2.58,18.52.19,2.3.8,7.64,1.41,11.81,1.03,6.8,1.08,8.72.89,18.75-.33,15.33-2.06,34.73-3.89,43.73-.47,2.44-1.12,6.14-1.45,8.2-.52,3.66-1.5,8.91-2.34,12.66-1.97,8.53-2.86,13.78-3.52,20.62-.66,6.61-.7,8.72-.23,12.42,1.73,14.02,3.28,21.05,6.14,28.12,2.48,6.05,8.02,17.06,10.31,20.44.7,1.03,6.33,6.61,12.47,12.37,12.52,11.81,30.42,29.67,34.22,34.08,2.77,3.28,4.59,6.61,5.06,9.23.28,1.27.56,1.69,1.12,1.59.56-.14.7-.61.61-2.25-.19-2.91-1.88-6.14-5.44-10.55-3.61-4.45-22.5-23.62-34.03-34.45-4.5-4.27-8.95-8.58-9.94-9.61-4.08-4.27-13.78-25.36-14.91-32.34-.28-1.73-.61-3.37-.7-3.56-.38-.52-2.11-12.98-2.3-16.08-.28-5.53,1.03-17.11,2.95-26.16,1.03-4.78,2.25-10.78,2.63-13.36.42-2.53,1.27-7.22,1.87-10.45,1.41-7.12,1.78-10.08,3.28-24.98,1.5-15,1.59-29.25.28-38.44-.52-3.42-1.17-8.95-1.45-12.28-.89-9.75-1.78-16.26-2.58-18.47-.37-1.17-1.03-3.47-1.45-5.16-.7-3.19-1.69-5.11-5.25-10.55-1.17-1.78-2.72-4.73-3.52-6.56-1.92-4.64-5.02-13.78-5.3-15.75-.14-.89-.47-1.83-.7-2.11-.23-.23-.42-.66-.42-.94,0-.23.23-.14.47.23.28.42.47.47.47.14,0-.28-.23-.7-.52-.89-.8-.47-.05-4.31,1.22-6.51,2.91-5.02,8.06-7.97,13.83-7.92,3.98.05,5.02.61,9.89,5.67,12.05,12.37,14.06,14.91,14.72,18.66.19,1.03.7,3.47,1.17,5.39,1.59,6.42,1.83,10.83,2.11,36.8.28,28.41.7,34.36,3.05,42.89,3.33,12.23,11.02,25.64,18.98,33.19,3.98,3.8,7.73,6.61,10.97,8.3.89.42,2.63,1.59,3.84,2.58,3,2.39,6.23,3.52,13.08,4.69,13.45,2.3,15.19,2.44,24,1.69,4.92-.42,9.28-1.08,11.16-1.64,1.69-.52,4.83-1.36,7.03-1.92,5.72-1.45,10.27-4.03,17.72-9.98,9-7.27,12.14-10.12,16.92-15.56,9.42-10.64,21.7-21.8,24.05-21.8.56,0,3.33,1.36,6.19,3,5.86,3.42,8.62,4.27,12.14,3.89,5.53-.66,12.98-5.95,17.72-12.56,1.12-1.64,4.27-5.25,6.94-8.11,6.09-6.52,8.2-9.28,11.11-14.53,2.16-3.84,4.69-6.84,5.91-6.84,1.08,0,3.47,3.23,4.27,5.72,1.03,3.28.98,3.94-.19,10.78-1.08,6.19-.94,7.78.98,14.91.52,1.92,2.53,9.61,4.45,17.11,4.73,18.47,5.53,21.05,6.42,21.23.66.14.66-.23.09-3.28-1.45-8.25-5.06-24.23-7.08-31.55-2.48-9-2.77-12.61-1.59-21.09.61-4.36.61-4.92-.19-7.45-.47-1.45-1.45-3.52-2.16-4.5-1.45-1.97-4.36-3.75-6.14-3.75-1.97.05-5.2,3.66-7.78,8.72-.52,1.03-3.37,4.31-6.33,7.27-3.14,3.14-6.89,7.55-9.14,10.73-4.27,6.05-6.37,8.48-9.47,10.87-3.56,2.81-6,3.84-9.19,3.84-2.48.05-3.19-.19-5.62-1.64-3.89-2.39-8.11-4.5-9.89-4.87-.8-.14-2.34-.05-3.37.23-3.23.84-13.73,10.36-26.39,24-8.02,8.53-21.52,19.5-26.81,21.7-.84.37-4.64,1.5-8.44,2.53-11.34,3.14-20.02,3.56-32.16,1.64-9.33-1.45-13.22-2.62-15.75-4.64-1.03-.89-2.95-2.16-4.22-2.86-5.34-2.95-12.37-9.05-16.03-14.02-5.72-7.64-10.78-17.77-13.03-25.97-2.34-8.53-2.95-15.19-3.19-36.37-.38-34.87-.42-35.95-1.78-41.72-.66-2.86-1.45-6.37-1.73-7.83-.42-1.97-1.17-3.52-2.77-5.58-1.22-1.59-2.72-3.84-3.33-4.92-1.41-2.58-7.73-9.42-9.09-9.84-.56-.19-1.12-.42-1.27-.61-.56-.7-4.17-2.91-6.09-3.75-2.91-1.27-6.28-1.5-9.66-.75h0Z"/>
      <path class="cls-1" d="M62.31,243.65c-12.8,2.86-14.2,3.28-18.98,5.58-5.95,2.81-12.66,7.31-16.22,10.87-4.12,4.08-10.59,13.73-16.22,24.09-3.66,6.75-9.75,19.87-9.37,20.2.7.7,1.69-.47,4.03-4.78,6.28-11.53,7.87-14.34,10.73-18.94,5.39-8.67,11.25-16.69,14.11-19.36,6.14-5.63,16.5-11.34,23.62-12.98,15.19-3.52,15.23-3.52,22.59-3.47,5.67.05,8.2.28,13.12,1.31,10.78,2.2,16.41,4.45,28.22,11.34,12.94,7.55,21.94,14.81,24.37,19.64.66,1.27,2.16,3.94,3.33,5.86,3.94,6.47,4.73,13.17,2.06,17.81-2.44,4.27-10.03,11.25-20.01,18.33-3.33,2.39-7.36,5.44-8.91,6.75-1.55,1.31-4.92,4.03-7.5,5.95-5.95,4.55-11.72,10.27-15.19,15.09-2.3,3.19-5.81,9.09-11.62,19.5-8.02,14.34-12.98,26.39-15.66,37.97-.89,3.7-1.03,5.58-.94,11.25.09,3.75.19,8.39.23,10.31,0,1.92-.14,3.98-.33,4.55-.33.89-.23,1.08.56,1.08,2.16,0,2.95-4.27,2.3-12.42-.75-9.8.94-18.23,6.42-31.64,2.95-7.22,5.72-12.7,13.03-25.5,9.33-16.45,13.17-21,26.06-30.98,2.67-2.06,6.56-5.06,8.67-6.7,2.06-1.59,5.58-4.17,7.78-5.67,7.5-5.16,15.23-12.37,18.14-16.83,1.41-2.16,1.64-2.95,1.87-6.33.28-4.41-.61-8.86-2.39-11.58-.56-.89-2.2-3.7-3.56-6.23-1.78-3.23-3.47-5.48-5.58-7.59-9-8.81-29.95-21.09-41.01-24.14-8.58-2.39-14.86-3.33-23.25-3.52-7.78-.19-8.53-.14-14.53,1.17Z"/>
      <path class="cls-1" d="M308.02,247.45c-1.83.7-4.78,3.38-5.72,5.16-1.59,3.05-1.69,5.91-.23,9.33,1.87,4.5,7.59,16.17,9.61,19.69,4.36,7.55,7.78,18.23,8.44,26.25,1.08,13.31,2.06,19.17,3.56,21.42.89,1.41,2.91,1.41,4.64.05,2.39-1.87,2.67-3.37,3.09-15.84.23-6.33.52-14.77.7-18.75.23-5.58.09-8.58-.47-12.89-1.45-10.36-5.02-21.84-8.02-26.01-1.73-2.34-5.86-6.05-8.3-7.45-1.83-1.03-5.81-1.59-7.31-.94h0ZM313.46,250.87c.56.28,2.62,2.11,4.5,3.94,3.09,3.05,3.66,3.94,5.34,8.06,2.39,5.72,4.5,13.92,5.53,21.33.61,4.36.7,7.5.47,14.06-.14,4.64-.38,12.56-.42,17.58-.14,7.59-.33,9.42-1.03,10.92-2.16,4.55-3.47-.61-4.92-19.36-.28-4.12-.84-7.27-1.83-10.55-1.36-4.41-4.78-13.03-5.67-14.06-.94-1.17-8.53-16.55-9.37-19.03-1.73-5.16-1.12-9.61,1.83-12.75,1.03-1.12,1.45-1.27,2.86-1.03.89.19,2.11.56,2.72.89h0Z"/>
      <path class="cls-1" d="M60.67,256.54c-1.27.38-3.19.89-4.22,1.12-2.48.61-14.58,5.48-16.41,6.61-3.75,2.34-9.61,9.89-11.25,14.53-.89,2.48-.89,2.34.19,2.34.56,0,1.55-1.22,3.09-3.89,1.41-2.44,3.56-5.16,5.81-7.41,3.56-3.52,3.7-3.56,10.92-6.37,3.98-1.59,9.52-3.42,12.19-4.08l4.92-1.22,12.14.47c13.64.52,15.75.89,25.92,4.45,10.55,3.66,14.06,5.91,22.5,14.25,5.11,5.06,6.28,7.55,6.33,13.64.05,3.52-.09,4.31-1.41,7.03-2.48,5.16-7.92,10.08-20.58,18.52-3.89,2.53-9.7,6.75-12.98,9.37-3.23,2.58-7.08,5.58-8.48,6.7-1.41,1.12-5.39,4.92-8.86,8.44-7.59,7.69-10.97,12.61-14.3,20.76-2.53,6.19-3.28,9.23-4.83,20.3-1.03,7.27-2.63,13.59-4.22,16.69-1.83,3.61-6.8,6.09-20.06,10.12-.33.09-.47.42-.28.7.8,1.31,12.37-1.41,18.05-4.27,5.67-2.86,7.78-7.69,10.03-23.3.66-4.59,1.59-9.94,2.06-11.91,1.17-4.69,5.11-13.36,7.88-17.53,3.09-4.5,14.16-15.51,21.23-21.09,3.23-2.53,6.8-5.39,7.97-6.33,1.17-.94,4.17-3,6.75-4.59,8.25-5.2,13.55-9.14,17.76-13.17,3.37-3.23,4.45-4.69,6.09-7.92,1.78-3.66,1.97-4.27,1.92-7.55,0-6.98-2.3-11.11-10.03-18.14-8.06-7.31-11.53-9.33-22.5-13.08-11.58-3.94-14.44-4.41-28.83-4.69-9.94-.19-12.61-.09-14.53.47Z"/>
      <path class="cls-1" d="M79.65,266.38c-.38.09-3.56.52-7.03.94-3.47.42-7.59.98-9.14,1.22-3.66.66-12.61,4.41-19.5,8.2-2.95,1.64-6.37,3.42-7.59,3.94-1.17.52-2.86,1.55-3.66,2.25-1.64,1.36-4.17,5.06-4.17,6.05,0,1.22,1.83.61,2.77-.94,1.59-2.63,2.91-3.52,11.86-8.06,15.8-7.97,18.47-8.91,30.14-10.36,8.62-1.08,15.23-1.03,20.72.19,5.25,1.17,7.12,2.11,12.52,6.28,6.52,4.97,7.78,7.22,7.78,13.97,0,5.02-.66,6.94-3.75,11.44-4.31,6.23-8.77,9.8-19.36,15.56-9.14,4.97-12.66,7.22-18.33,11.81-3.09,2.53-6.42,5.58-7.45,6.89-3.84,4.78-7.97,15.56-10.17,26.58-2.25,11.11-3.94,16.73-5.72,19.26-1.97,2.77-7.59,3.98-12.19,2.58-2.72-.8-5.39-3.94-5.81-6.75-.56-3.84-2.06-3.89-2.06-.09,0,4.17,2.53,7.55,6.61,8.77,5.81,1.73,12,.94,15.05-2.02,2.34-2.25,3.47-5.02,5.3-12.84.94-3.8,2.2-9.14,2.81-11.91,2.58-10.92,6.61-20.25,10.22-23.72,6.42-6.19,12.98-10.78,22.59-15.8,3.38-1.73,7.59-4.13,9.37-5.3,6.61-4.27,13.64-12.37,15.47-17.91.61-1.87.75-3.56.61-7.17-.23-6.94-1.22-8.58-8.58-14.25-6.42-4.97-9.19-6.33-15.33-7.69-3.84-.84-12-1.5-13.97-1.12Z"/>
      <path class="cls-1" d="M246.06,270.7c-3.84,2.53-5.58,4.45-7.97,8.81-2.44,4.5-3.38,5.95-5.11,8.2-2.58,3.23-8.48,8.81-10.83,10.17-1.17.7-3.28,2.02-4.69,3-1.41.94-5.72,3.33-9.61,5.34-3.84,2.02-7.27,3.8-7.5,4.03-.28.19-2.2.98-4.22,1.78-2.06.75-6.47,2.67-9.84,4.27-3.33,1.59-8.34,3.94-11.06,5.16-2.77,1.22-6.23,2.95-7.73,3.89-1.55.89-4.87,2.44-7.45,3.37-6.37,2.39-7.27,2.86-16.64,9.05-6.98,4.64-9.05,6.28-14.06,11.3-9.8,9.84-18.61,20.95-22.03,27.7-1.83,3.61-6.19,15.23-7.31,19.45-1.45,5.2-4.41,28.08-4.41,33.7,0,2.2-1.97,13.87-3.56,20.91-.84,3.8-5.11,11.67-6.61,12.23-1.31.47-1.41,1.36-.14,1.36,1.83,0,3.28-1.12,5.11-3.94,2.95-4.5,4.17-7.69,5.16-13.22.47-2.81,1.31-7.64,1.87-10.73.52-3.09,1.41-10.17,1.92-15.7,1.22-12.23,2.11-18.75,3.33-23.53,1.12-4.55,5.16-15.52,7.22-19.83,3-6.19,11.48-16.92,21.14-26.76,4.83-4.87,6.75-6.42,14.48-11.58,6.89-4.59,9.98-6.33,13.83-7.83,2.72-1.03,6.28-2.58,7.97-3.47,1.69-.84,4.31-2.2,5.86-3,1.55-.8,4.73-2.3,7.03-3.33,2.34-1.03,7.12-3.14,10.64-4.73,3.52-1.55,7.22-3.14,8.2-3.47,2.86-1.03,17.3-8.77,22.55-12.09,2.67-1.69,6-4.08,7.41-5.3,3.66-3.14,8.2-8.95,11.06-14.11,3.09-5.58,4.69-7.5,8.25-9.7,2.3-1.41,3.28-1.73,5.2-1.73,5.2,0,13.08,5.72,17.58,12.8,2.58,3.98,2.95,5.16,4.73,13.92,1.59,7.73,1.64,8.25,1.64,18.84s-.05,11.11-1.36,16.08c-2.77,10.45-4.22,14.34-11.06,30.23-5.34,12.47-7.31,26.34-7.36,52.5-.05,27.28.94,33.51,7.22,45.84,3.42,6.75,4.78,9.19,11.16,20.01,1.22,2.06,2.72,4.69,3.28,5.86,1.31,2.67,7.88,12.61,11.62,17.67,4.27,5.72,14.44,25.69,18.33,35.91,1.12,2.91,1.97,10.59,1.87,16.73-.14,9.89-.09,10.31.94,10.31,1.22,0,1.45-.84,1.97-6.8,1.12-13.97.28-18.42-6.47-33-3.42-7.45-9.8-18.8-13.5-23.95-8.06-11.3-9.33-13.31-14.86-23.44-2.06-3.7-4.31-7.59-5.02-8.67-2.86-4.12-9.42-17.48-10.5-21.33-2.2-7.69-2.44-10.87-2.44-34.45,0-20.2.09-22.64,1.03-29.53,1.69-12.09,3.23-17.25,9.42-31.64,4.5-10.31,8.39-22.83,9.05-28.83.33-2.72.33-7.55.05-13.59-.98-20.53-5.2-31.17-15.33-38.67-4.64-3.42-7.08-4.36-11.72-4.59l-4.22-.19-3.52,2.3Z"/>
      <path class="cls-1" d="M70.98,278.76c-4.31,1.12-13.55,4.36-15.94,5.53-7.73,3.98-13.41,8.11-17.44,12.66-2.91,3.33-9.75,12.7-12.23,16.78-1.73,2.86-4.55,9.52-4.17,9.89.52.52,1.22-.33,3.19-3.94,5.06-9.33,15.47-22.12,21.75-26.76,4.45-3.33,11.72-7.03,18.05-9.23,9.19-3.19,10.55-3.42,18.75-3.42,8.72,0,11.06.61,13.31,3.38,1.31,1.69,1.45,2.11,1.45,5.16-.05,4.64-1.17,7.73-4.08,10.87-3.56,3.89-9.05,8.25-15.19,12.19-6.98,4.36-7.92,5.06-12.84,9.52-8.95,8.11-10.08,9.47-12.89,15.28-1.41,3-3.14,7.5-3.8,9.98-1.45,5.48-4.08,11.3-7.08,15.7-1.97,2.91-2.34,3.19-3.56,3-1.03-.19-1.31-.05-1.17.56.09.56.7.84,2.11.94,1.87.14,2.02.05,4.36-2.81,3.09-3.8,6.19-10.17,7.69-15.89,1.36-5.11,4.22-12.09,6.42-15.52,2.16-3.33,15-14.53,20.48-17.91,8.16-4.92,15.33-10.69,18.98-15.19,2.16-2.72,3.61-7.17,3.61-11.06,0-2.39-.23-3.28-1.36-5.06-1.73-2.77-2.72-3.37-7.08-4.55-4.69-1.31-16.36-1.36-21.33-.09h0Z"/>
      <path class="cls-1" d="M66.06,287.19c-5.53,1.45-6.89,2.06-11.25,5.11-7.73,5.39-9.84,7.22-15.14,12.94-12.42,13.55-17.91,24.89-20.58,42.56-.52,3.33-.38,4.73.37,3.98.19-.14,1.31-3.94,2.58-8.39,4.59-16.55,8.77-24.28,19.12-35.72,6.09-6.75,7.08-7.59,15.09-13.03,5.48-3.7,6.23-4.08,10.87-5.2,5.3-1.36,10.87-1.64,14.01-.8,2.25.66,2.86,2.3,2.2,6-1.03,5.48-2.39,7.36-9.56,12.8-2.3,1.78-5.58,4.41-7.27,5.86-1.69,1.45-4.97,3.94-7.31,5.58-5.53,3.89-10.08,8.77-13.5,14.44-3.09,5.2-3.66,6.56-5.44,13.45-1.27,4.87-1.27,4.92-2.77,5.06-2.02.19-1.64,1.22.52,1.41,2.53.23,3.33-.89,4.83-6.47,3.14-11.86,8.86-20.01,18.94-27.05,2.44-1.69,6.23-4.59,8.44-6.42,2.2-1.87,5.11-4.17,6.42-5.11,4.22-3.05,7.97-7.45,8.77-10.27,1.69-6,1.27-9-1.41-10.41-1.55-.8-7.59-1.69-10.83-1.64-1.22,0-4.41.61-7.12,1.31h0Z"/>
      <path class="cls-1" d="M60.34,296.62c-.66.19-3.8,2.11-6.89,4.22-12.89,8.72-23.72,24.47-21.47,31.26.38,1.22.94,1.88,1.88,2.2,1.69.61,3.09-.42,6.47-4.92,4.92-6.52,15.37-15.75,21.47-18.98,2.95-1.55,7.83-6.28,8.77-8.48.98-2.25.84-4.17-.38-5.02-1.12-.8-7.5-.98-9.84-.28ZM68.4,299.19c0,2.77-3.47,6.56-8.91,9.84-6.84,4.08-16.83,13.27-21.75,20.02-1.45,2.02-2.86,3.66-3.09,3.66-.8,0-.52-4.59.47-7.22,1.31-3.52,4.08-7.59,9.05-13.5,4.36-5.25,6.75-7.41,8.11-7.41.42,0,2.2-1.17,3.94-2.58,3.94-3.23,5.62-3.94,9.28-3.98,2.81,0,2.91.05,2.91,1.17Z"/>
      <path class="cls-1" d="M241.79,304.07c-5.34,1.5-10.97,4.55-21.51,11.58-3.98,2.67-9.05,5.63-11.25,6.52-2.2.94-6.61,3.05-9.84,4.69-4.55,2.3-6.94,3.23-10.55,3.98-2.86.66-6.56,1.87-9.61,3.28-2.72,1.22-6.28,2.72-7.92,3.33-3.66,1.31-15.7,8.48-21.19,12.61-7.27,5.48-13.92,12.84-18.52,20.39-8.95,14.67-10.36,17.76-14.3,32.15-1.55,5.77-3.66,13.36-4.64,16.83-.98,3.47-2.25,8.62-2.81,11.48-1.45,7.27-3.05,13.5-5.39,21.09-1.08,3.61-2.48,8.86-3.05,11.72-.98,4.97-3.52,16.31-5.91,26.48-1.08,4.45-2.67,10.36-3.33,12-.14.42.09.66.52.66,1.5,0,3.98-7.03,8.2-23.44,1.31-5.02,2.91-11.67,3.56-14.81.66-3.14,2.3-9.47,3.7-14.06,1.41-4.59,3.19-11.58,3.98-15.42,1.97-9.33,4.03-17.11,10.41-39.14,1.73-5.91,4.03-10.97,8.2-18,8.62-14.34,13.31-19.78,23.76-27.42,4.41-3.23,14.39-9.09,17.91-10.55,1.83-.75,5.58-2.39,8.34-3.61,2.81-1.27,7.03-2.72,9.38-3.28,4.59-.98,8.06-2.39,12.98-5.16,1.69-.94,4.55-2.3,6.33-3,5.02-1.97,6.52-2.81,13.83-7.73,9.89-6.61,15.7-9.7,20.67-11.06,2.34-.61,5.16-1.12,6.28-1.12,1.73,0,2.2.23,3.66,1.83,2.16,2.39,4.73,7.12,6.23,11.34,1.08,3.09,1.27,4.36,1.45,12.14l.28,8.67-2.95,10.08c-2.86,9.98-6.14,19.92-10.69,32.58-3.42,9.52-5.62,21.28-7.31,39.61-1.22,12.56-1.36,17.67-.8,24.37.7,7.73,1.5,11.91,3.61,18.23,2.25,6.8,5.3,12.42,10.41,19.22,2.44,3.23,6.14,8.44,8.2,11.53,2.06,3.09,6.75,9.61,10.41,14.53,8.77,11.86,10.59,14.91,13.59,22.64,1.36,3.61,3.89,9.37,5.53,12.8,1.69,3.47,3.28,7.13,3.56,8.16.66,2.39.66,7.5.05,8.72-.42.7-.33.89.33.89,1.87,0,2.81-3.98,2.02-8.48-.33-1.73-1.73-5.62-3.33-9.09-1.55-3.37-3.98-9.33-5.44-13.31-3.05-8.34-4.87-11.53-12.56-21.98-3.09-4.17-8.06-11.16-11.06-15.47-2.95-4.31-7.27-10.36-9.52-13.45-13.22-18-15.75-34.08-11.25-71.11,1.03-8.44,2.86-17.72,4.36-22.03.75-2.16,3.28-9.37,5.63-16.08,2.34-6.7,5.58-16.41,7.22-21.56l2.91-9.37v-9.61c0-8.91-.09-9.84-1.12-12.89-2.63-7.78-7.12-14.3-10.31-14.91-2.95-.61-6.84-.23-11.34,1.03Z"/>
      <path class="cls-1" d="M207.85,336.46c-3.28.28-5.25.8-9.05,2.3-2.63,1.08-6.33,2.34-8.2,2.86-6.84,1.87-10.87,3.75-14.48,6.66-1.87,1.55-5.2,4.03-7.41,5.53-5.67,3.94-10.03,8.11-18.56,17.81-7.45,8.58-10.27,12.23-11.58,15.42-1.64,3.84-5.11,12.42-7.59,18.8-1.45,3.75-3.66,9.33-4.92,12.42-3.66,9.14-5.06,14.25-6.09,22.5-3.56,27.56-5.91,38.25-11.58,51.75-1.08,2.67-2.02,5.06-2.02,5.3s.42.19.94-.09c2.34-1.27,9.14-18.56,10.78-27.42.56-3.09,1.41-7.73,1.87-10.31.47-2.58,1.31-8.16,1.83-12.42.56-4.27,1.36-9.66,1.73-11.95.7-4.08,3.8-14.02,5.25-16.87.37-.8,1.5-3.52,2.44-6.09,3.47-9.23,9.94-24.89,11.34-27.37.84-1.41,2.77-4.03,4.31-5.86,11.02-12.84,18.23-20.02,24.33-24,1.88-1.22,4.97-3.47,6.89-5.02,4.08-3.23,5.67-3.98,13.27-6.23,3.05-.94,7.5-2.39,9.8-3.28,3.7-1.45,5.06-1.73,11.2-2.16,8.3-.66,9.94-.37,16.26,2.72,5.3,2.58,7.45,4.64,9.61,9.19,2.06,4.41,2.39,6.7,1.5,11.62-1.31,7.64-2.77,11.2-10.55,25.97-4.83,9.14-6.8,15.56-8.16,26.3-1.45,11.02-1.27,16.87.66,26.06,3.28,15.56,6.75,23.25,17.44,38.39,18.19,25.78,21,30.28,27.28,43.36,2.77,5.67,3.05,6.66,4.5,15.23,1.64,9.33,1.22,15.89-1.27,21.89-2.02,4.78-5.2,9.98-6.51,10.55-1.41.66-1.45,1.31-.05,1.31,3.56,0,8.81-6.66,11.25-14.3.84-2.62,1.83-11.2,1.5-13.22-.09-.7-.66-4.17-1.22-7.64-1.5-9.47-2.67-12.33-11.11-26.95-4.36-7.55-6.33-10.5-15.56-23.2-14.53-19.92-17.48-25.22-20.67-37.03-4.27-15.89-4.59-22.55-1.97-38.44,1.31-8.11,5.53-18.94,10.41-26.86,4.92-8.02,8.67-22.03,7.55-28.08-.7-3.61-2.91-7.97-5.39-10.64-2.48-2.63-8.2-5.81-13.92-7.73-3.84-1.31-7.31-1.45-16.08-.75h0Z"/>
      <path class="cls-1" d="M527.72,349.54c-3.19.98-9.28,5.86-16.12,12.94-4.92,5.06-5.3,5.34-7.78,5.86-2.95.56-5.34.19-9.14-1.41-1.27-.56-3.37-1.22-4.69-1.45-3.09-.56-9.8.14-12.52,1.36-2.86,1.27-10.08,7.64-15.89,14.02-1.22,1.36-3.75,3.37-5.58,4.59-1.83,1.17-5.16,3.89-7.41,6.05-6.7,6.33-17.44,11.58-25.59,12.52-2.25.23-5.06.66-6.28.94-2.81.66-17.48.66-24.84,0-13.31-1.22-29.53-7.36-37.64-14.3-6.75-5.77-8.81-8.48-14.67-19.5-4.41-8.3-6.98-12.33-8.72-13.83-2.81-2.39-4.83-2.72-6.42-1.03-3.09,3.28-5.3,16.83-7.08,42.75-.23,3.61-.98,10.27-1.64,14.77-3.05,21.28-3.23,23.3-2.95,31.4.38,11.06,2.48,17.95,7.97,25.92,1.31,1.92,10.17,11.2,23.39,24.33l21.23,21.23,3.89,6.23c6.19,9.89,12.75,23.01,16.22,32.58.98,2.67,1.97,2.67,1.78.05-.52-5.77-7.5-21.51-14.95-33.56-4.55-7.36-3-5.77-35.95-38.2-13.73-13.55-16.03-16.69-19.03-26.01-1.88-6-2.39-16.59-1.17-25.22.42-2.72,1.03-7.69,1.41-11.02.42-3.37,1.17-8.81,1.69-12.19.52-3.33,1.12-9.8,1.36-14.34.75-14.62,2.63-28.64,4.55-34.64,1.83-5.53,3.94-3.42,11.62,11.48,2.3,4.36,5.16,9.37,6.47,11.16,2.63,3.61,8.72,9.42,12.47,11.91,2.63,1.73,15.75,7.78,17.86,8.2.66.14,3.7.94,6.8,1.73,7.97,2.11,22.41,3.23,31.59,2.48,11.39-.94,16.17-1.83,22.08-4.17,7.55-3,12-5.72,17.02-10.31,2.39-2.2,6-5.11,8.06-6.47,2.11-1.41,4.87-3.8,6.33-5.48,4.27-4.92,11.3-11.2,13.87-12.37,1.83-.89,3.28-1.12,6.56-1.22,3.8-.09,4.5.05,7.92,1.5,3.23,1.36,4.31,1.59,7.73,1.59,5.11.05,6.89-.61,9.7-3.61,10.5-11.25,17.53-16.5,20.95-15.61.52.14,2.58,1.78,4.55,3.66,6.05,5.86,6.47,7.83,8.81,41.62.19,3.23.33,7.41.28,9.23-.09,3.52.14,3.98,1.22,2.63.89-1.03.94-28.73.05-35.62-1.12-9-3.8-15.84-7.03-18.37-.89-.66-2.44-1.97-3.42-2.91-2.25-2.11-5.67-2.81-8.91-1.88h0Z"/>
      <path class="cls-1" d="M201.76,350.8c-3.33.37-7.45,1.08-9.09,1.64-5.72,1.83-11.39,5.44-17.53,11.11-12.75,11.81-15.98,14.95-17.86,17.34-2.39,3.14-14.86,24.28-16.55,28.12-2.95,6.66-6.7,17.81-8.11,24-.84,3.75-2.2,9.23-3.05,12.19-.84,2.95-1.97,7.17-2.48,9.38-.56,2.2-1.31,5.34-1.73,7.03-1.59,6.37-1.73,7.83-1.5,14.3.19,4.31.61,7.92,1.22,10.31,1.45,5.81,1.97,9.66,1.41,10.41-.7.8-.14,6.75.98,11.16,1.36,5.34,5.06,13.78,7.22,16.64,1.08,1.41,3,4.17,4.27,6.09,1.22,1.92,2.86,4.36,3.66,5.34,3.84,4.87,20.48,13.08,32.91,16.22,5.02,1.31,6.84,1.5,16.55,1.92,14.3.61,18.37.23,27.8-2.58,3.98-1.22,8.62-2.63,10.31-3.09,6.52-1.97,12.7-6.94,15.05-12.19,2.3-5.06,2.91-8.48,2.3-12.98-.56-3.89-2.02-9.33-3.7-13.5-1.41-3.56-7.83-14.95-10.78-19.22-6.7-9.56-12.33-18.33-14.53-22.55-3.84-7.5-6.98-17.53-10.03-31.83-.89-4.36-1.08-6.37-.98-13.12,0-4.78.33-9.66.8-12.23.8-4.73,3.23-11.44,5.95-16.36,2.44-4.45,6.14-13.22,7.92-18.84,2.11-6.42,2.44-13.17.98-17.62-1.41-4.13-2.06-4.83-5.81-6.19-4.13-1.5-8.11-1.73-15.56-.89ZM215.63,353.38c2.34.8,3,1.55,4.17,4.78.94,2.58,1.03,3.42.75,7.59-.23,3.84-.66,5.77-2.34,10.55-2.39,6.89-5.16,13.22-7.45,17.11-2.77,4.64-5.44,12.05-6.19,17.06-.94,6.14-.94,18.98.05,24,1.31,7.03,3.89,17.16,5.86,23.01,3.19,9.56,6.52,15.61,16.83,30.37,8.91,12.75,13.78,22.78,15.89,32.48,1.5,6.94,1.22,10.08-1.55,15.84-2.34,5.02-8.53,9.37-15.75,11.2-2.2.52-6.19,1.69-8.91,2.58-6.33,2.02-13.87,2.91-18.61,2.16-1.87-.28-5.58-.52-8.25-.52-8.48,0-20.86-3.75-32.86-9.98-8.53-4.45-10.27-5.91-14.67-12.52-2.2-3.23-4.45-6.37-5.02-7.03-1.22-1.36-1.69-2.2-4.78-8.62-1.22-2.58-2.02-4.73-1.73-4.83.33-.14.28-1.41-.14-4.03-.37-2.11-.89-6.19-1.17-9-.28-2.86-.89-7.08-1.41-9.37-.7-3.05-.98-6.19-1.03-11.25-.05-7.78.47-10.59,4.59-25.55,1.12-3.98,2.91-10.97,3.94-15.47,1.22-5.25,2.91-10.87,4.73-15.66,3.33-8.67,4.45-11.02,9.52-19.5,2.06-3.47,4.83-8.11,6.09-10.26,3.33-5.58,7.08-9.84,15-16.97,12.61-11.39,15.33-13.41,22.03-16.08,5.3-2.11,18.66-3.37,22.41-2.11Z"/>
      <path class="cls-1" d="M194.07,362c-4.41,2.11-8.3,5.2-12.7,10.12-1.92,2.11-5.02,4.97-6.89,6.37-1.83,1.36-4.36,3.8-5.62,5.39-1.22,1.64-4.03,4.87-6.23,7.17-4.87,5.2-10.92,13.78-12.75,18.09-3.05,7.31-6.52,19.97-8.62,31.59-1.12,6.37-2.62,30.66-2.3,37.5.66,12.94,2.34,21,5.86,28.22,6.7,13.5,16.87,24.51,27.61,29.9,2.44,1.22,5.16,2.67,6.09,3.28.94.61,4.64,1.88,8.25,2.86,6.42,1.73,6.75,1.73,16.73,1.97,17.53.33,19.97-.42,23.77-7.27,1.12-2.02,2.53-4.41,3.09-5.3,3.37-5.34,4.08-8.58,3.42-15.14-.23-2.58-.75-5.58-1.08-6.7-.7-2.39-5.48-11.3-12.84-24-9.94-17.06-15.94-31.5-18.33-44.15-3.14-16.41-3.42-20.39-2.11-29.76,1.08-7.78,1.45-9.09,5.62-18.98,4.92-11.58,6.37-16.17,6.7-20.76.47-7.69-2.91-11.58-10.45-11.91-3.52-.19-3.94-.09-7.22,1.5h0ZM205.09,363.6c.8.47,1.97,1.69,2.58,2.67,2.44,3.98,1.12,10.69-5.02,25.36-3.94,9.47-4.78,12.09-5.63,17.72-1.97,13.12-1.83,15.89,1.45,31.78,2.39,11.53,6.52,22.92,12.7,34.97,2.81,5.48,3.7,7.12,7.92,14.11.84,1.41,2.34,4.17,3.33,6.09.94,1.92,2.2,4.27,2.77,5.16,4.73,7.59,6.33,12.47,6.33,19.27,0,3.47-1.08,6.61-3.66,10.36-.75,1.12-2.16,3.47-3.09,5.3-1.17,2.16-2.44,3.75-3.7,4.69l-1.97,1.41h-24.37l-6.05-1.59c-4.83-1.27-7.31-2.25-12.47-4.97-7.5-3.89-10.83-6.42-16.92-12.8-4.59-4.73-8.39-10.36-12.09-17.81-4.5-9.05-6.14-23.3-4.97-43.36.38-6.23.94-13.45,1.22-16.03,1.17-10.87,6.05-29.72,9.56-37.03,1.92-4.03,9.28-14.02,12.14-16.45,1.12-1.03,3.47-3.56,5.2-5.72,1.83-2.3,4.55-4.97,6.56-6.47,1.92-1.36,4.97-4.27,6.84-6.37,5.77-6.66,7.03-7.59,14.02-10.59,1.92-.84,5.67-.66,7.31.33Z"/>
      <path class="cls-1" d="M192.62,372.83c-3.84,1.03-6.98,3.42-14.86,11.34-5.91,5.91-7.64,7.97-9.8,11.67-1.45,2.48-3.66,6-4.87,7.83-3,4.55-9.37,17.44-10.92,22.08-.7,2.06-1.64,5.53-2.16,7.73-.47,2.2-1.45,6.42-2.16,9.37-3.33,14.02-3.37,22.17-.47,40.55,2.44,15.19,9.05,30.05,17.02,38.34,3.28,3.37,11.62,7.64,19.64,9.98,8.2,2.44,9.47,2.63,14.81,2.39,4.36-.23,5.48-.47,8.11-1.69,5.11-2.39,6.98-4.27,9.56-9.61,2.72-5.63,3.09-7.92,2.39-14.2-.61-5.34-1.36-8.25-4.69-19.12-3.8-12.19-5.48-16.17-10.5-24.56-5.72-9.61-9.09-16.87-11.25-24.19-1.45-4.87-1.92-7.31-2.91-15.09-.33-2.63.66-10.31,1.92-15.52.7-2.77,2.67-8.62,4.41-12.98,6.23-15.8,6.66-18.09,3.8-21.05-.8-.84-1.45-1.87-1.45-2.3,0-.47-.56-1.03-1.22-1.27-1.41-.56-1.22-.56-4.41.28ZM194.96,374.9c0,.23.23.47.56.47s1.17.56,1.87,1.27c2.48,2.34,1.78,5.48-4.73,21.23-6.61,15.84-7.27,28.03-2.53,44.3,2.25,7.78,5.62,14.81,12.66,26.34,3.47,5.62,4.78,9.23,11.16,29.76,1.64,5.25,2.72,11.34,2.72,15.66.05,3.52-.09,4.08-1.97,8.02-3.52,7.36-6.84,9.56-14.81,9.8-7.17.23-14.95-1.83-24.47-6.42-6.89-3.37-9.33-5.48-13.41-11.53-6.33-9.47-9.66-18.47-12.05-32.3-2.67-15.47-2.44-26.81.75-39.56.61-2.44,1.45-6,1.83-7.92.38-1.92,1.31-5.3,2.06-7.5,1.69-4.97,7.78-17.25,11.06-22.31,1.31-2.06,3.52-5.53,4.87-7.73,1.55-2.48,3.98-5.48,6.52-7.97,2.25-2.2,5.25-5.25,6.66-6.75,4.27-4.5,11.25-8.77,11.25-6.84Z"/>
      <path class="cls-1" d="M184.79,387.6c-1.55.56-10.12,7.31-11.16,8.72-2.25,3.19-8.91,13.73-10.12,16.17-1.22,2.39-2.58,6.51-3.75,11.25-.23.94-.84,2.86-1.36,4.22-1.41,3.89-4.17,15.84-4.73,20.91-.33,2.48-.56,8.34-.56,12.98-.05,7.97.05,8.91,1.64,16.73,3.7,17.76,8.16,28.08,14.77,34.12,3.37,3.05,5.86,4.5,11.34,6.52,4.03,1.45,5.02,1.59,9.19,1.59,4.78,0,9.14-.84,11.2-2.2,1.73-1.12,3.94-4.83,4.55-7.69.33-1.5.61-5.02.61-7.83,0-4.59-.19-5.67-1.55-9.84-4.27-12.89-7.03-19.36-15.52-36.56-3.05-6.19-6.19-13.17-6.98-15.47-2.81-8.34-3.56-19.41-1.73-25.08,1.17-3.66,5.53-14.34,7.27-17.67,1.08-2.16,1.36-7.5.56-9.66-.47-1.27-2.11-1.78-3.66-1.22ZM186.24,391.35c.7,3.61.47,4.36-4.87,15.66-3.98,8.34-4.92,14.77-3.56,23.81,1.12,7.59,3.52,14.34,9.19,25.87,7.12,14.44,10.69,22.92,14.34,33.75l3.14,9.37-.28,4.92c-.52,9-2.53,12.66-7.59,13.87-5.02,1.17-8.48.89-13.92-1.12-5.67-2.11-9.33-4.36-12.42-7.78-5.34-5.91-9.61-16.5-12.75-31.97-1.83-8.81-1.92-9.84-1.92-17.3,0-13.12.84-17.91,5.72-33.75,1.03-3.38,2.3-7.45,2.81-9.14,1.03-3.37,1.64-4.59,7.12-13.36,2.06-3.37,4.64-6.94,5.67-7.97,2.06-2.11,7.69-6.23,8.48-6.28.28-.05.66.61.84,1.41Z"/>
      <path class="cls-1" d="M171.43,409.72c-1.17,1.17-4.08,8.48-6.23,15.52-3.8,12.52-5.25,27.23-3.75,38.72,1.97,15.7,6.05,29.62,10.69,36.56,3.14,4.69,6.37,7.36,11.72,9.56,3.7,1.55,6,1.5,9.38-.19,5.86-2.91,6.51-6.61,3.33-17.62-1.5-5.34-2.91-8.44-6.98-15.66-6.09-10.83-13.17-27.05-15.28-34.97-.61-2.34-1.08-5.81-1.22-9.56-.23-5.2-.09-6.56,1.03-11.91,1.12-5.25,1.41-9.61.66-10.36-.66-.61-2.72-.7-3.33-.09ZM172.51,417.69c-1.45,5.16-1.69,7.03-1.64,13.69,0,4.73.23,7.03,1.08,10.31,1.87,7.31,9.23,24.56,13.87,32.58,8.81,15.23,12.66,28.12,9.56,32.06-1.22,1.55-4.17,3.09-6,3.09-.75,0-3.14-.8-5.3-1.83-6.56-3-10.08-7.59-14.3-18.47-1.78-4.69-4.31-14.91-5.58-22.59-1.64-9.94-.8-25.78,1.92-36.33,1.17-4.55,3.89-12.42,5.48-15.75,1.45-3.09,1.5-3.19,1.69-1.73.09.84-.28,3.09-.8,4.97Z"/>
      <path class="cls-1" d="M167.31,445.81c-2.3,1.17-2.39,8.72-.19,17.02.66,2.58,1.64,6.42,2.11,8.62.89,3.8,1.36,5.48,5.34,17.91,2.11,6.7,4.03,9.61,8.11,12.42,3.8,2.58,5.86,2.72,8.06.52,1.41-1.41,1.5-1.64,1.31-4.31-.33-4.59-2.58-9.56-9.14-20.25-3.09-5.11-8.67-17.3-10.22-22.5-1.64-5.39-3-8.95-3.7-9.52-.38-.33-.94-.28-1.69.09ZM170.07,454.58c.8,2.44,1.69,5.2,1.97,6.09.56,1.64,2.91,6.84,5.86,12.89.84,1.78,3.05,5.58,4.83,8.34,4.45,6.98,7.27,13.41,7.31,16.73v2.58l-1.83.14c-3.75.33-8.81-4.64-11.02-10.69-3.52-9.84-9-32.06-9.28-37.69-.23-5.02.09-4.78,2.16,1.59Z"/>
      <path class="cls-1" d="M522.8,368.33c-1.31.52-12.75,8.25-14.25,9.61-3.14,2.86-6.89,3.42-13.64,1.97-4.27-.94-9.7-.38-13.36,1.36-3.56,1.69-13.27,8.3-18.94,12.84-5.06,4.12-7.5,5.62-11.48,7.08-3.94,1.41-16.45,7.27-18.98,8.86-1.17.75-3.7,1.73-5.62,2.25-1.92.52-5.11,1.45-7.03,2.11-4.78,1.59-8.62,2.11-21.61,2.72-8.11.42-12.94.42-18.05.05-6.37-.47-7.5-.7-13.31-2.67-8.34-2.91-11.34-4.36-15-7.41-3.37-2.81-8.77-9.05-10.08-11.58-1.31-2.58-2.72-4.27-4.08-4.97-1.31-.66-6.7-.89-8.72-.37-1.64.47-2.72,3.09-4.08,10.08-1.22,6-1.27,7.12-1.5,25.26-.28,19.87-.05,24,1.69,29.34,1.31,4.17,2.95,7.03,6.14,10.73,1.55,1.78,3.94,4.78,5.39,6.66,1.41,1.87,5.44,6.37,8.95,10.08,7.87,8.2,14.53,16.03,18.19,21.42,2.63,3.8,12.56,14.3,16.5,17.39.94.8,3.98,3.52,6.7,6.05,2.72,2.58,5.81,5.34,6.84,6.14,1.03.84,2.25,2.11,2.72,2.86.89,1.31,2.2,1.87,2.2.84,0-1.41-5.44-7.03-19.92-20.53-5.86-5.48-9.09-9.09-12.61-14.11-4.31-6.28-15.09-18.8-19.83-23.11-1.41-1.31-4.31-4.69-6.52-7.55-2.16-2.86-5.11-6.56-6.56-8.25-3.05-3.52-4.45-6.33-5.86-11.53-.89-3.28-1.03-5.34-1.22-17.53-.33-19.78.89-35.81,3.19-41.39.52-1.27.66-1.31,3.66-1.17l3.09.14,1.41,2.2c.8,1.17,1.92,3.05,2.58,4.17,1.69,2.86,9.66,10.83,12.66,12.7,3.56,2.2,12.28,5.53,18.75,7.22,3.75.98,17.48,1.31,28.83.7,11.77-.61,16.27-1.17,20.62-2.62,1.83-.56,4.97-1.55,7.03-2.11,2.06-.56,4.92-1.69,6.33-2.53,3.05-1.83,11.95-6,18.37-8.62,5.91-2.39,7.78-3.52,13.08-7.87,5.62-4.59,15.66-11.25,19.08-12.66,3.19-1.31,6.8-1.45,11.58-.42,6.52,1.36,11.11.66,14.58-2.3,2.91-2.48,12.47-8.81,14.25-9.47,2.48-.94,3.14-.8,5.16,1.08,2.11,1.88,5.16,7.69,6.09,11.62,1.36,5.67,1.41,22.03.09,31.5-.38,2.62-.33,2.95.37,2.95,1.03,0,2.06-3.47,3.09-10.36.56-3.66.7-7.17.52-14.02-.19-9.8-.56-11.72-3.47-17.48-1.31-2.67-4.45-6.19-6.28-7.17-1.41-.7-6.14-.84-7.73-.19Z"/>
      <path class="cls-1" d="M523.87,386.14c-.7.23-2.86,1.88-4.83,3.7-4.17,3.94-5.72,4.5-9.23,3.52-7.92-2.16-8.02-2.2-12.28-1.88-7.92.52-14.62,2.77-20.02,6.66-1.97,1.45-8.02,4.31-19.41,9.09-2.39,1.03-6.28,2.86-8.67,4.17-2.44,1.31-6.61,3.09-9.33,4.03-5.48,1.92-6.05,2.2-11.72,5.44-4.27,2.44-20.25,8.72-25.87,10.22-9.66,2.53-22.87,2.3-33.66-.66-10.22-2.77-10.83-3.05-22.64-11.67-5.25-3.84-7.31-4.97-9.14-4.97-4.17,0-5.34,2.67-5.62,12.8-.33,11.58.61,17.11,4.73,27.52,3.7,9.42,4.97,11.53,10.27,17.39,2.63,2.95,6.7,7.5,8.95,10.17,4.03,4.69,14.72,14.77,29.72,28.12,9.56,8.48,13.22,12.33,17.02,18.05,1.69,2.48,3.28,4.55,3.61,4.55,1.08,0,1.12-.94.14-2.86-3.75-7.31-8.72-12.89-22.5-25.17-4.5-4.03-9.52-8.67-11.16-10.22-1.59-1.59-3.75-3.61-4.73-4.5-2.2-1.92-8.77-8.95-14.34-15.37-2.3-2.67-5.34-6.09-6.7-7.59-2.72-3-4.36-6.28-7.73-15.14-2.81-7.36-3.52-10.31-4.03-16.73-.7-9.28-.09-18,1.36-18.89.75-.47,4.17,1.59,10.97,6.7,7.73,5.81,10.97,7.55,17.39,9.23,2.58.7,5.95,1.64,7.5,2.06,2.25.61,5.02.75,13.59.7,13.73,0,15.7-.42,31.17-6.28,8.53-3.23,9.66-3.75,15.47-7.08,2.2-1.27,6.42-3.14,9.37-4.17,2.95-1.08,8.11-3.28,11.48-4.92,6.33-3.09,13.36-6.28,19.45-8.77,1.92-.8,5.2-2.58,7.27-3.94,4.83-3.19,7.5-4.36,11.91-5.16,5.67-.98,9.42-.84,13.55.56,2.86.98,4.12,1.22,6.61,1.03,3.94-.28,5.62-1.17,9.61-4.97l3.19-3.09,1.17,1.36c2.95,3.56,4.36,8.53,5.34,19.22.89,10.03,0,21.33-2.44,30.47q-1.55,5.86-.75,5.86c1.55,0,5.06-11.34,6.23-20.16,1.45-11.16.05-26.72-3.05-33.05-2.2-4.45-4.5-6.19-7.22-5.39h0Z"/>
      <path class="cls-1" d="M494.48,400.21c-3.75,1.17-12.75,6.09-16.64,9.09-1.17.89-4.08,2.62-6.47,3.84-2.39,1.22-6.33,3.52-8.77,5.11-5.77,3.8-17.02,9.94-21.8,11.91-2.06.89-5.58,2.48-7.78,3.61-5.3,2.72-6.84,3.23-15.19,5.16-11.72,2.67-16.83,3.14-31.64,2.81-13.12-.33-13.41-.33-24.98-2.86-4.31-.94-7.31-.66-9,.84-.66.56-1.69,2.48-2.34,4.31-.94,2.72-1.17,4.17-1.17,8.48,0,6.05.56,8.39,3.61,14.48,2.81,5.58,3.94,6.94,10.03,11.95,2.81,2.34,7.27,6.47,9.94,9.19,6.05,6.28,12.33,11.48,17.58,14.58,14.44,8.58,19.5,13.31,24.19,22.64,2.48,4.92,2.86,5.81,4.69,10.97.52,1.55,1.27,2.91,1.64,3,1.97.66-1.55-11.67-5.16-18-3.98-6.98-11.67-13.87-21.37-19.17-6.14-3.33-10.73-6.98-19.12-15.23-3.61-3.52-8.16-7.69-10.08-9.19-5.77-4.5-7.41-6.47-10.26-12.33l-2.63-5.39v-7.03c0-6.7.09-7.22,1.31-9.8l1.27-2.67h2.25c1.27,0,3.37.33,4.69.7,5.81,1.73,12.09,2.48,23.3,2.81,13.22.38,21.37-.42,33.51-3.28,9.37-2.16,11.02-2.72,16.64-5.53,2.58-1.27,6.33-3.05,8.39-3.89,4.69-1.97,15.75-7.97,20.91-11.34,2.2-1.41,6.47-3.94,9.56-5.58,3.05-1.64,6.33-3.56,7.27-4.31,1.83-1.41,6.52-4.17,11.3-6.66,2.91-1.5,3.28-1.59,7.55-1.5,2.86.05,6.23.52,9.37,1.27,4.78,1.12,4.92,1.22,7.27,3.75,1.92,2.06,2.67,3.33,3.66,6.23,1.08,3.37,1.17,4.27,1.17,12.33,0,5.72-.23,10.17-.7,13.03-.8,4.5-.61,5.72.56,4.08,1.83-2.48,2.95-10.69,3-21.8,0-4.69-.14-5.86-1.22-8.77-1.55-4.17-5.39-8.95-8.06-9.89-5.67-2.02-16.73-3.09-20.25-1.97h0Z"/>
      <path class="cls-1" d="M493.73,412.86c-4.17.84-9.47,4.17-15.7,9.89-2.11,1.92-5.67,4.83-7.92,6.52-2.25,1.69-6.8,5.16-10.12,7.69-7.73,6-12.66,9.33-15.98,10.87-3.98,1.78-12,3.75-20.02,4.92-9.23,1.31-19.22,1.03-27.84-.75-8.53-1.73-19.83-1.45-24.19.7-6.89,3.33-8.16,10.5-3.52,19.55,1.31,2.58,2.91,4.73,4.83,6.61,3.14,3.09,14.72,12.28,21.23,16.83,2.3,1.59,5.62,4.22,7.41,5.77,1.83,1.55,5.06,3.89,7.27,5.2,2.2,1.36,5.44,3.52,7.27,4.78,3.05,2.2,10.36,5.95,14.39,7.41,1.41.47,1.92.47,2.34.05.8-.8.38-1.08-5.72-4.08-2.95-1.5-7.41-4.08-9.84-5.86-2.44-1.73-5.91-4.12-7.73-5.3-1.78-1.17-3.7-2.53-4.22-3-3.19-2.95-8.06-6.89-10.64-8.62-4.5-3.05-15.19-11.53-18.7-14.86-4.36-4.13-6.94-9.19-7.27-14.16-.33-4.36.52-6.19,3.61-8.11,1.97-1.22,2.63-1.31,8.44-1.59,5.81-.23,6.8-.14,13.41,1.22,6.42,1.31,8.02,1.45,15.33,1.45,14.06,0,28.22-2.72,37.08-7.08,2.63-1.31,7.36-4.27,10.83-6.84,13.5-10.03,19.36-14.58,23.62-18.37,9.75-8.67,15.28-10.59,20.81-7.36,2.58,1.5,4.5,4.36,6.33,9.37,1.92,5.34,2.48,9.75,2.67,20.91.14,8.77.05,10.03-.94,14.3-.61,2.58-1.08,4.73-.98,4.83.98,1.08,3.84-5.34,4.97-11.2.7-3.75.66-14.53-.05-21-.8-7.08-3.19-13.36-6.47-17.02-3.28-3.66-7.92-4.83-13.97-3.66Z"/>
      <path class="cls-1" d="M488.72,423.69c-3.61.56-6.09,2.39-15.52,11.62-4.92,4.78-10.22,9.75-11.76,11.06-1.55,1.27-3.09,2.62-3.42,2.95-2.58,2.44-11.58,7.36-15.8,8.72-2.2.66-7.12,1.64-17.11,3.28-6.42,1.08-15.05,1.69-22.92,1.64-3.75,0-7.45,0-8.16.05-1.45.05-3.61.98-5.48,2.44-1.36,1.08-5.16,6.84-5.16,7.87,0,1.83,1.08,4.17,2.91,6.28,1.83,2.11,20.11,17.11,24.84,20.34,3.84,2.62,19.64,10.26,23.86,11.53,4.83,1.45,4.64,1.45,4.64.37,0-.98-1.08-1.55-5.86-3.19-1.78-.61-5.25-2.25-7.73-3.66-2.44-1.41-5.81-3.19-7.5-4.03-4.41-2.2-7.64-4.5-16.64-11.67-12.8-10.27-16.17-13.59-16.17-16.08,0-1.64,2.25-4.78,4.36-6.09,2.2-1.41,2.44-1.41,12.37-1.36,10.55.09,20.01-.94,33.65-3.56,13.08-2.48,20.16-7.08,37.55-24.33,4.64-4.64,9.33-9,10.36-9.7,1.03-.7,3.05-1.55,4.45-1.83,2.25-.47,2.91-.42,4.87.33,7.08,2.72,10.36,10.36,9.56,22.5-.47,7.31-1.31,10.22-3.7,13.22-2.67,3.33-6.75,7.12-6.42,6,1.55-5.34,2.34-11.81,2.39-18.98,0-7.31-.05-7.87-1.17-10.08-1.27-2.58-3.66-4.45-5.58-4.45-2.16.05-5.25,1.78-7.97,4.59-2.67,2.81-3.84,4.55-8.16,12.14-5.06,8.95-8.81,12.47-17.95,16.78-11.77,5.62-14.81,6.14-31.59,5.39-11.62-.52-12.75-.47-14.3.28-2.11.98-4.59,4.97-4.22,6.7.94,3.94,11.81,13.55,19.92,17.62,8.3,4.17,12.19,5.48,18.7,6.33,6.8.89,8.02.8,8.02-.47,0-.98-.05-.98-8.16-2.34-4.64-.75-6.56-1.36-11.81-3.7-9.66-4.31-18.14-10.36-22.55-16.03-1.78-2.3-1.97-2.77-1.59-3.84.84-2.25,1.45-2.3,15.14-1.73,15.89.7,18.09.47,26.58-2.91,14.2-5.58,19.59-10.41,27.28-24.37,3.05-5.48,5.44-8.44,8.3-10.27,3.84-2.44,6.47-1.55,8.02,2.67.84,2.2.94,3.33.75,9.19-.33,11.76-3.28,23.67-7.78,31.55-1.31,2.25-2.2,4.22-2.06,4.36.7.7,5.44-6.61,7.31-11.25,1.36-3.37,1.78-3.94,5.16-6.75,7.41-6.19,9.33-10.87,9.33-22.97,0-7.78-1.73-13.83-5.16-17.67-3.14-3.61-6.8-5.11-10.92-4.5h0Z"/>
      <path class="cls-1" d="M482.06,448.67c-.56.37-2.86,3.8-5.16,7.59-2.91,4.78-5.53,8.39-8.48,11.67-7.12,7.87-10.45,10.36-17.91,13.17-4.03,1.55-4.13,1.59-11.91,1.55-7.22-.05-8.02.05-10.03.98-1.64.8-2.39,1.55-3,2.95-.47,1.03-.75,2.2-.61,2.63,1.08,3,5.91,6.66,10.45,7.78,4.45,1.17,12.8,2.06,17.11,1.88,4.5-.23,10.08-1.78,10.08-2.86,0-.61-.33-.7-1.73-.47-4.03.66-12.98.84-16.45.33-5.02-.75-9.94-1.92-11.53-2.72-1.83-.94-5.91-4.78-5.91-5.58,0-.33.7-.98,1.55-1.45,1.31-.75,2.53-.84,9-.7,8.44.14,11.02-.38,17.3-3.47,5.02-2.53,6.84-3.98,12.8-10.27,5.25-5.53,6.94-7.92,12.19-16.78,1.17-2.02,2.39-3.8,2.72-3.94.33-.09,1.27.14,2.06.56,1.73.89,1.83.14-.94,12.28-1.92,8.67-3.28,12.37-7.17,19.36-4.92,8.91-7.83,15.75-5.48,12.98.89-1.12,7.97-13.97,10.22-18.61,2.2-4.64,4.5-12.75,6.05-21.56l.84-4.73-1.41-1.36c-1.69-1.69-3.37-2.11-4.64-1.22h0Z"/>
    </g>
  </g>
</svg>