<?xml version="1.0" encoding="UTF-8"?>
<svg id="Layer_2" data-name="Layer 2" xmlns="http://www.w3.org/2000/svg" viewBox="0 0 362 362.01">
  <defs>
    <style>
      .cls-1 {
        fill: #930000;
      }
    </style>
  </defs>
  <g id="Layer_1-2" data-name="Layer 1">
    <path class="cls-1" d="M181,362.01c17.26,0,33.96-2.43,49.79-6.97.1-.01.2-.02.3-.05.05-.01.1-.05.16-.07.06-.02.13-.05.19-.08,40.45-11.75,75.08-37.27,98.5-71.13.02-.02.03-.04.05-.05.01-.01.03-.01.04-.03,0,0,0,0,0-.01.07-.07.11-.17.17-.25.07-.1.14-.18.19-.29.01-.02.03-.04.04-.06,0-.02,0-.05.02-.07,19.88-29.06,31.53-64.18,31.53-101.97,0-82.33-55.25-151.99-130.63-173.86-.12-.06-.25-.11-.39-.14-.05-.01-.09-.01-.14-.02,0,0-.01,0-.02,0-15.84-4.54-32.55-6.98-49.83-6.98-37.47,0-72.32,11.45-101.23,31.02-.23.08-.45.19-.65.37-.06.05-.08.12-.13.17C31.34,64.2,0,119,0,181c0,99.81,81.2,181.01,181,181.01ZM3.75,185.6l108.36,104.75-32.31,36.17C35.01,295.26,5.25,243.89,3.75,185.6ZM163.28,112.27l64.63,68.09-64.72,68.91-45.91-68.54,46-68.46ZM279.45,132.95l45.16,142.39-91.48-94.98,46.32-47.41ZM6.3,182.93h104.7l-44.52,58.18L6.3,182.93ZM113.02,186.37v99.73l-43.86-42.4,43.86-57.32ZM116.72,186.54l108.17,161.49-108.17-58.68v-102.81ZM165.29,252.42l63.45-67.55v162.28l-63.45-94.73ZM232.43,184.97l91.98,95.5h-91.98v-95.5ZM282.38,129.96l44.53-45.57v185.99l-44.53-140.42ZM232.43,175.79v-94.08h91.94l-91.94,94.08ZM228.74,79.86v96.02l-63.35-66.75L228.74,14.85v65ZM161.76,107.9s-.04.02-.06.03c-.21.21-.35.45-.45.71l-44.54,66.28v-102.11L224.85,14.01l-63.09,93.89ZM113.02,175.09l-43.55-56.91,43.55-42.1v99.01ZM66.8,120.76l44.75,58.48H6.31l60.49-58.48ZM82.88,328.62l32.14-35.98,110.59,60c-14.26,3.71-29.21,5.69-44.61,5.69-36.26,0-70-10.95-98.12-29.7ZM232.43,350.7v-66.54h92.69c-22.5,31.35-54.95,55.08-92.69,66.54ZM330.6,276.07V85.93c17.53,27.49,27.7,60.12,27.7,95.07s-10.17,67.58-27.7,95.08ZM325.25,78.01h-92.81V11.31c37.81,11.48,70.31,35.27,92.81,66.7ZM225.63,9.39l-110.51,60.1-31.94-36.29C111.24,14.57,144.87,3.69,181,3.69c15.41,0,30.36,1.98,44.63,5.69ZM80.1,35.29l32.09,36.46L3.75,176.57c1.44-58.48,31.35-110.02,76.35-141.28Z"/>
  </g>
</svg>