<?xml version="1.0" encoding="UTF-8"?>
<svg id="Layer_2" data-name="Layer 2" xmlns="http://www.w3.org/2000/svg" viewBox="0 0 379.46 379.46">
  <defs>
    <style>
      .cls-1 {
        fill: #fd96ad;
      }
    </style>
  </defs>
  <g id="Layer_1-2" data-name="Layer 1">
    <g>
      <g>
        <path class="cls-1" d="M294.01,189.73c0,34.98-46.78,63.43-104.28,63.43s-104.29-28.45-104.29-63.43,46.78-63.44,104.29-63.44,104.28,28.45,104.28,63.44ZM90.18,189.73c0,32.36,44.66,58.69,99.55,58.69s99.54-26.32,99.54-58.69-44.66-58.69-99.54-58.69-99.55,26.33-99.55,58.69Z"/>
        <path class="cls-1" d="M253.17,189.73c0,57.5-28.45,104.29-63.44,104.29s-63.43-46.78-63.43-104.29,28.45-104.29,63.43-104.29,63.44,46.79,63.44,104.29ZM131.04,189.73c0,54.89,26.32,99.54,58.69,99.54s58.69-44.65,58.69-99.54-26.32-99.55-58.69-99.55-58.69,44.66-58.69,99.55Z"/>
      </g>
      <path class="cls-1" d="M379.46,189.73c0,104.62-85.11,189.73-189.73,189.73S0,294.35,0,189.73,85.11,0,189.73,0s189.73,85.11,189.73,189.73ZM9.49,189.73c0,99.39,80.85,180.24,180.24,180.24s180.25-80.85,180.25-180.24S289.11,9.48,189.73,9.48,9.49,90.34,9.49,189.73Z"/>
      <path class="cls-1" d="M377.09,189.73c0,62.42-84.05,113.21-187.36,113.21S2.36,252.15,2.36,189.73s84.06-113.21,187.37-113.21,187.36,50.78,187.36,113.21ZM7.11,189.73c0,59.8,81.93,108.47,182.62,108.47s182.62-48.67,182.62-108.47-81.92-108.46-182.62-108.46S7.11,129.92,7.11,189.73Z"/>
      <path class="cls-1" d="M302.93,189.73c0,103.31-50.78,187.36-113.2,187.36s-113.2-84.05-113.2-187.36S127.31,2.37,189.73,2.37s113.2,84.05,113.2,187.36ZM81.27,189.73c0,100.69,48.65,182.61,108.46,182.61s108.47-81.92,108.47-182.61S249.53,7.12,189.73,7.12s-108.46,81.91-108.46,182.61Z"/>
      <path class="cls-1" d="M344.61,261.79c0,24.87-7.73,45.76-22.4,60.42-21.53,21.54-55.63,27.84-95.97,17.72-39.91-10.01-81.33-34.92-116.56-70.16-46.86-46.86-74.83-103.73-74.83-152.11,0-24.88,7.75-45.77,22.4-60.42,44.14-44.13,139.48-20.61,212.54,52.43,46.85,46.86,74.82,103.72,74.82,152.11ZM39.59,117.66c0,46.46,28.15,103.46,73.46,148.76,34.63,34.64,75.24,59.11,114.34,68.92,38.68,9.69,71.14,3.83,91.47-16.48,13.75-13.75,21-33.48,21-57.07,0-46.45-28.14-103.46-73.44-148.76C195.23,41.83,102.88,18.31,60.6,60.6c-13.75,13.75-21.01,33.48-21.01,57.07Z"/>
      <path class="cls-1" d="M344.61,117.67c0,48.38-27.97,105.25-74.82,152.11-73.06,73.05-168.4,96.58-212.54,52.44-14.65-14.66-22.4-35.55-22.4-60.42,0-48.39,27.97-105.25,74.83-152.12,35.24-35.24,76.65-60.16,116.56-70.16,40.34-10.12,74.43-3.81,95.97,17.73,14.67,14.66,22.4,35.54,22.4,60.42ZM39.59,261.8c0,23.59,7.26,43.31,21.01,57.06,42.28,42.29,134.63,18.77,205.82-52.43,45.3-45.3,73.44-102.3,73.44-148.76,0-23.59-7.26-43.32-21-57.07-20.33-20.32-52.8-26.18-91.47-16.48-39.1,9.79-79.71,34.27-114.34,68.91-45.31,45.3-73.46,102.31-73.46,148.76Z"/>
    </g>
  </g>
</svg>