<?xml version="1.0" encoding="UTF-8"?>
<svg id="Layer_2" data-name="Layer 2" xmlns="http://www.w3.org/2000/svg" viewBox="0 0 317 317">
  <defs>
    <style>
      .cls-1 {
        fill: #930000;
      }
    </style>
  </defs>
  <g id="Layer_1-2" data-name="Layer 1">
    <path class="cls-1" d="M198.25,5.05c-.07-.02-.13-.04-.19-.05,0,0-.01,0-.02,0-.02,0-.04-.02-.06-.02,0,0-.01,0-.02,0-12.62-3.24-25.84-4.97-39.46-4.97-14.8,0-29.13,2.04-42.73,5.86-.11.02-.21.04-.31.08-14.43,4.07-28.02,10.15-40.47,17.9,0,0,0,0-.01,0-.1.03-.18.09-.27.13-.1.05-.2.08-.28.15-.06.05-.1.12-.16.17-14.15,8.91-26.8,20-37.48,32.8-.03.02-.07.03-.11.06-.07.05-.11.13-.17.2-.08.09-.17.18-.24.29,0,0-.01,0-.02.02-.02.03-.01.06-.03.09C13.61,85.16,0,120.27,0,158.5c0,25.15,5.9,48.95,16.37,70.1,0,.03,0,.07.01.11,0,0,0,0,0,.01.06.19.15.35.26.5.02.03.04.05.06.07,7.16,14.29,16.42,27.36,27.37,38.79.03.06.06.11.1.17.02.03.03.05.05.08.12.15.26.27.42.37.03.02.05.03.08.04,10.34,10.67,22.15,19.89,35.12,27.34.08.08.16.15.25.2.04.03.09.04.13.06.1.05.2.09.31.12,23.03,13.07,49.64,20.54,77.96,20.54.29,0,.58,0,.87-.01.03,0,.05.01.07.01.02,0,.04-.01.07-.01.03,0,.07,0,.11,0,.06,0,.12.01.18.01.03,0,.05-.01.08-.02,40.77-.35,77.91-16.16,105.84-41.85.28-.14.52-.35.67-.63.21-.19.42-.39.62-.58.25-.14.45-.33.6-.56,30.41-28.9,49.4-69.71,49.4-114.87,0-73.67-50.53-135.77-118.75-153.45ZM283.55,66.58L206.39,10.8c31.2,10.14,58.09,29.91,77.16,55.78ZM68.77,210.79l-15.24,4.72,17.05-137.91,12.7,6.7-14.5,126.49ZM50.14,216.56l-30.31,9.39L39.02,60.95l28.5,15.04-17.38,140.58ZM49.7,220.09l-5.38,43.51c-9.48-10.29-17.59-21.85-24.04-34.4l29.42-9.12ZM53.09,219.03l17.64-5.46s.03-.02.04-.03c.14-.05.27-.13.39-.21.05-.03.1-.05.15-.09.3-.26.5-.62.55-1.04l14.75-128.64s0-.02,0-.02c.01-.14-.01-.27-.03-.4-.01-.08,0-.16-.03-.23-.03-.1-.09-.18-.14-.27-.05-.09-.08-.19-.14-.27-.05-.06-.12-.1-.18-.15-.1-.09-.18-.18-.3-.25,0,0-.01-.01-.02-.02l-14.76-7.79,5.7-46.13,32.86,19.07-24.79,202.96-37.35,14.75,5.66-45.78ZM78.62,25.4c11.02-6.64,22.94-11.95,35.52-15.7l-4.14,33.91-31.38-18.2ZM112.62,48.87l23.15,13.43-20.35,175.68-27.21,10.74,24.41-199.85ZM117.49,240.63s0,0,0,0h0s.03-.03.04-.03c.17-.08.33-.17.46-.3.06-.05.09-.12.14-.18.08-.09.15-.19.21-.3.04-.08.06-.17.08-.26.02-.08.07-.15.08-.24l20.58-177.67s0,0,0,0h0c0-.07-.01-.12-.01-.18,0-.15,0-.31-.04-.45-.03-.1-.09-.19-.13-.28-.05-.09-.08-.19-.14-.28-.09-.11-.2-.19-.31-.28-.05-.04-.09-.1-.15-.13l-25.26-14.66,4.33-35.43,35.83,24.6-27.3,240.56-43.03,17.27,4.89-40.01,29.73-11.74ZM159.03,11.87l33.51,24.11-2.45,19.97-33.45-22.97,2.39-21.11ZM223.73,255.86l-57.89,23.63,2.19-17.81,19.1-7.67h.03s.05-.05.09-.07c.15-.07.29-.16.41-.27.06-.06.1-.12.15-.19.08-.09.15-.19.2-.3.04-.08.06-.17.09-.26.02-.08.06-.15.07-.23l22.64-181.47c0-.08-.02-.15-.02-.22,0-.12,0-.23-.03-.34-.02-.1-.07-.19-.11-.28-.04-.09-.08-.19-.14-.27-.07-.09-.15-.17-.24-.25-.06-.05-.09-.12-.16-.16l-17.02-11.69,2.44-19.87,51.04,36.73-22.84,180.99ZM162.4,280.89l-35.55,14.51,2.04-18.01,35.7-14.33-2.2,17.83ZM185.06,251.36l-16.58,6.66,24.16-196.38,14.82,10.18-22.4,179.54ZM189.63,59.57l-24.58,199.82-35.73,14.35,26.9-237.12,33.41,22.95ZM125.49,278.76l-2.15,18.99s0,.05,0,.08c0,.11.01.21.03.32.01.11.02.21.06.32,0,.03,0,.05.01.08.05.12.12.23.2.33.02.02.03.05.04.07.12.15.27.27.42.36.04.03.09.04.13.06.14.06.27.11.42.14.03,0,.06.03.09.03.06,0,.12.01.18.01h0c.21,0,.41-.04.59-.12,0,0,.01,0,.02,0l36.4-14.86-3.59,29.19c-26.62-.02-51.69-6.78-73.6-18.65l40.73-16.35ZM161.75,312.72l3.63-29.55,60.54-24.71c.73-.3,1.09-1.07.94-1.82.01-.06.05-.1.05-.16l22.98-182.15c0-.08-.02-.15-.02-.22,0-.11,0-.22-.03-.33-.02-.1-.06-.19-.11-.29-.04-.09-.08-.18-.14-.27-.07-.09-.15-.17-.23-.25-.05-.05-.09-.11-.15-.16l-53.26-38.33,3.07-24.99,88.08,63.67-23.56,198.69-101.82,40.86ZM258.05,277.56c-24.53,20.55-55.49,33.66-89.37,35.87l89.37-35.87ZM196,7.82l-3.01,24.5-34.31-24.69s-.05-.02-.08-.03c-.09-.06-.19-.09-.29-.13-.1-.04-.2-.08-.31-.1-.03,0-.05-.03-.08-.03-.08,0-.16.02-.24.02-.09,0-.19,0-.28.02-.14.03-.26.08-.39.14-.06.03-.12.05-.17.09-.12.08-.22.18-.31.29-.03.04-.08.06-.11.1-.01.02-.02.04-.03.06-.06.1-.1.21-.15.33-.04.09-.08.19-.09.29,0,.03-.03.05-.03.09l-2.51,22.14-33.35-22.9c12.24-3.11,25.05-4.77,38.24-4.77s25.49,1.6,37.5,4.59ZM73.36,28.72l-5.42,43.83-27.66-14.59c9.57-11.23,20.71-21.09,33.08-29.23ZM35.41,63.98l-18.43,158.39c-8.83-19.49-13.75-41.12-13.75-63.87,0-35.54,12.01-68.32,32.18-94.52ZM48.43,267.9l35.91-14.17-4.7,38.47c-11.42-6.76-21.91-14.94-31.21-24.3ZM267.13,269.32l22.91-193.21c15.02,23.89,23.72,52.14,23.72,82.39,0,43.36-17.88,82.62-46.64,110.82Z"/>
  </g>
</svg>